<?xml version="1.0" encoding="utf-8"?>
<!-- Generator: Adobe Illustrator 23.0.5, SVG Export Plug-In . SVG Version: 6.00 Build 0)  -->
<svg version="1.1" id="Layer_1" xmlns="http://www.w3.org/2000/svg" xmlns:xlink="http://www.w3.org/1999/xlink" x="0px" y="0px"
	 viewBox="0 0 468.56 190.55" style="enable-background:new 0 0 468.56 190.55;" xml:space="preserve">
<style type="text/css">
	.st0{fill:url(#SVGID_1_);}
	.st1{fill:#FFFFFF;}
	.st2{fill:#ECCB4A;}
	.st3{fill:#EB678A;}
	.st4{fill:#AFD077;}
	.st5{fill:#5B86C4;}
	.st6{fill:url(#SVGID_2_);}
	.st7{fill:url(#SVGID_3_);}
	.st8{fill:url(#SVGID_4_);}
	.st9{fill:url(#SVGID_5_);}
	.st10{fill:#FFFFFF;stroke:#662483;stroke-miterlimit:10;}
	.st11{fill:#E52421;}
	.st12{fill:#010202;}
	.st13{fill:#BA2221;}
	.st14{clip-path:url(#SVGID_7_);}
	.st15{clip-path:url(#SVGID_8_);}
	.st16{fill:url(#SVGID_9_);}
	.st17{fill:url(#SVGID_11_);}
	.st18{fill:url(#SVGID_12_);}
	.st19{fill:url(#SVGID_13_);}
	.st20{fill:url(#SVGID_14_);}
	.st21{fill:#FFFFFF;stroke:#000000;stroke-width:3;stroke-miterlimit:10;}
	.st22{fill:#AFAFAF;}
	.st23{clip-path:url(#SVGID_15_);}
	.st24{clip-path:url(#SVGID_16_);}
	.st25{clip-path:url(#SVGID_17_);}
	.st26{clip-path:url(#SVGID_18_);}
	.st27{clip-path:url(#SVGID_20_);}
	.st28{clip-path:url(#SVGID_21_);}
	.st29{clip-path:url(#SVGID_22_);}
	.st30{clip-path:url(#SVGID_24_);}
	.st31{fill:url(#SVGID_25_);}
	.st32{fill:url(#SVGID_26_);}
	.st33{fill:url(#SVGID_28_);}
	.st34{fill:url(#SVGID_29_);}
	.st35{fill:url(#SVGID_30_);}
	.st36{fill:url(#SVGID_32_);}
	.st37{fill:url(#SVGID_33_);}
	.st38{fill:url(#SVGID_34_);}
	.st39{fill:url(#SVGID_36_);}
	.st40{fill:url(#SVGID_37_);}
	.st41{fill:url(#SVGID_38_);}
	.st42{fill:url(#SVGID_40_);}
	.st43{fill:url(#SVGID_41_);}
	.st44{fill:url(#SVGID_42_);}
	.st45{fill:none;}
	.st46{fill:url(#SVGID_44_);}
	.st47{fill:url(#SVGID_45_);stroke:#FFFFFF;stroke-width:2;stroke-linecap:round;}
	.st48{fill:url(#SVGID_46_);}
	.st49{fill:url(#SVGID_48_);}
	.st50{fill:#E6007E;}
	.st51{fill:url(#SVGID_49_);}
	.st52{fill:url(#SVGID_50_);}
	.st53{fill:none;stroke:#000000;stroke-width:16;stroke-linecap:round;stroke-linejoin:round;}
	.st54{fill:url(#SVGID_51_);}
	.st55{fill:url(#SVGID_52_);}
	.st56{fill:url(#SVGID_53_);}
	.st57{fill:url(#SVGID_54_);}
	.st58{fill:none;stroke:#FFFFFF;stroke-width:2;}
	.st59{fill:url(#SVGID_55_);fill-opacity:0.26;}
</style>
<g>
	<g>
		<path d="M373.7,20.69c4.09,0,5.29,1.08,6.35,5.12c7.6,2.93,12.34,9.9,12.12,17.98c-0.04,1.33,0.38,2.33,1.13,3.33
			c2.29,3.11,4.6,6.21,6.8,9.38c2.4,3.47,2.09,7.83-0.62,10.67c-1.73,1.82-3.85,2.76-6.06,2.76c-1.55,0-3.15-0.47-4.69-1.42
			c-3.1-1.93-6.12-4-9.14-6.05c-0.63-0.43-1.21-0.72-1.92-0.72c-0.2,0-0.41,0.02-0.64,0.07c-1.33,0.28-2.63,0.42-3.91,0.42
			c-3.32,0-6.5-0.94-9.49-2.77c-0.72-0.44-1.39-0.67-2.13-0.67c-0.35,0-0.71,0.05-1.1,0.15c-6.03,1.59-12.07,3.12-18.13,4.61
			c-1.13,0.28-1.88,0.8-2.45,1.82c-2.41,4.32-6.01,7.23-10.76,8.64c-0.94,0.28-1.4,0.91-1.8,1.69c-1.55,2.99-3.13,5.96-4.65,8.96
			c-1.3,2.57-3.23,4.31-6.1,4.98c-0.64,0.15-1.28,0.22-1.9,0.22c-4.71,0-8.79-4.02-8.36-8.96c0.35-3.92,0.99-7.81,1.48-11.71
			c0.14-1.12,0.34-2.21-0.29-3.33c-4.01-7.1-3.68-14.06,0.83-20.85c0.31-0.47,0.57-0.99,0.86-1.48c0,0,0,0,0,0c0,0,0,0,0,0
			c-1.19-4.03-0.07-5.89,4.89-8.12c1.42-0.64,2.56-0.97,3.59-0.97c1.61,0,2.91,0.83,4.47,2.6c3.33,0.35,6.71,0.52,9.77,2.13
			c0.19,0.1,0.37,0.13,0.56,0.13c0.44,0,0.89-0.21,1.32-0.32c7.57-1.92,15.13-3.86,22.7-5.76c0.95-0.24,1.64-0.65,2.23-1.48
			c1.31-1.81,3.01-3.24,4.93-4.4c0.78-0.48,1.64-0.89,2.07-1.78c0,0,0,0,0,0c0,0,0,0,0,0c-0.1-3.7,3.8-4.89,7.87-4.92
			C373.59,20.69,373.65,20.69,373.7,20.69 M373.7,11.69l-0.22,0c-5.74,0.04-10.19,1.65-13.21,4.77c-1.15,1.19-2.04,2.57-2.65,4.08
			c-1.91,1.3-3.59,2.78-5,4.41c-4.14,1.04-8.28,2.1-12.42,3.15c-2.4,0.61-4.79,1.22-7.19,1.83c-2.45-0.86-4.83-1.24-6.97-1.48
			c-1.94-1.5-4.75-2.97-8.42-2.97c-3.01,0-5.59,1-7.27,1.76c-2.93,1.31-6.57,3.29-8.77,6.95c-1.62,2.69-1.97,5.39-1.86,7.59
			c-5.1,8.67-5.43,17.91-0.97,26.89c-0.14,1.11-0.3,2.21-0.45,3.32c-0.37,2.63-0.75,5.35-1,8.15c-0.42,4.75,1.2,9.51,4.44,13.06
			c3.31,3.62,8.01,5.69,12.88,5.69c1.33,0,2.65-0.15,3.95-0.46c5.32-1.24,9.49-4.59,12.07-9.68c0.93-1.84,1.92-3.72,2.87-5.54
			c0.26-0.5,0.52-1,0.78-1.49c4.99-2.04,9.12-5.41,12.14-9.91c5.07-1.26,9.79-2.46,14.32-3.64c3.92,2.04,8.07,3.07,12.37,3.07
			c1.03,0,2.07-0.06,3.11-0.18c2.51,1.71,5.09,3.45,7.76,5.1c2.92,1.82,6.19,2.78,9.43,2.78c4.7,0,9.16-1.97,12.57-5.55
			c5.7-5.99,6.32-15.03,1.51-22c-1.91-2.76-3.9-5.45-5.82-8.05l-0.51-0.69c-0.2-9.84-5.47-18.55-13.94-23.37
			C385.28,15.33,381.56,11.69,373.7,11.69L373.7,11.69z"/>
		<linearGradient id="SVGID_1_" gradientUnits="userSpaceOnUse" x1="303.6515" y1="55.2945" x2="402.7082" y2="55.2945">
			<stop  offset="0" style="stop-color:#2D2E83"/>
			<stop  offset="0.5193" style="stop-color:#662983"/>
			<stop  offset="1" style="stop-color:#951B81"/>
		</linearGradient>
		<path class="st0" d="M314.61,90.9c-2.63,0-5.18-1.13-6.98-3.1c-1.76-1.92-2.6-4.39-2.37-6.95c0.23-2.6,0.6-5.22,0.95-7.76
			c0.19-1.33,0.37-2.66,0.54-3.99l0.03-0.25c0.13-0.96,0.22-1.71-0.2-2.46c-4.17-7.39-3.88-14.75,0.86-21.89
			c0.2-0.3,0.37-0.62,0.55-0.93c0.02-0.04,0.04-0.08,0.07-0.12c-1.13-4.27,0.32-6.55,5.55-8.9c1.63-0.73,2.86-1.06,4-1.06
			c1.76,0,3.25,0.8,4.96,2.65l0.77,0.08c3,0.3,6.1,0.61,8.98,2.12c0.03,0,0.05,0,0.08,0c0.22,0,0.42-0.07,0.63-0.13
			c0.16-0.05,0.31-0.1,0.46-0.14c2.87-0.73,5.75-1.46,8.62-2.19c4.7-1.19,9.39-2.39,14.09-3.57c0.77-0.19,1.24-0.5,1.66-1.09
			c1.3-1.8,3.01-3.33,5.22-4.67l0.31-0.19c0.53-0.31,1-0.59,1.28-1c0.03-1.31,0.48-2.42,1.35-3.32c1.84-1.9,5.1-2.32,7.52-2.34
			l0.17,0c4.32,0,6,1.22,7.18,5.38c7.71,3.19,12.51,10.49,12.28,18.76c-0.03,0.99,0.24,1.78,0.93,2.71l1.15,1.56
			c1.88,2.55,3.83,5.19,5.67,7.85c2.64,3.81,2.34,8.72-0.72,11.93c-1.91,2.01-4.26,3.07-6.78,3.07c0,0,0,0,0,0
			c-1.78,0-3.53-0.53-5.21-1.57c-2.89-1.8-5.75-3.74-8.51-5.62l-0.66-0.45c-0.58-0.4-0.95-0.55-1.36-0.55
			c-0.14,0-0.28,0.02-0.43,0.05c-1.38,0.3-2.77,0.45-4.12,0.45c-3.47,0-6.84-0.98-10.01-2.92c-0.59-0.36-1.09-0.52-1.61-0.52
			c-0.26,0-0.54,0.04-0.84,0.12c-5.69,1.5-11.62,3.01-18.14,4.62c-0.91,0.22-1.4,0.59-1.82,1.34c-2.55,4.57-6.37,7.63-11.35,9.11
			c-0.52,0.15-0.81,0.44-1.19,1.19c-0.58,1.11-1.16,2.22-1.74,3.33c-0.98,1.87-1.96,3.74-2.91,5.62c-1.52,3-3.73,4.8-6.76,5.5
			C316.04,90.82,315.32,90.9,314.61,90.9z"/>
		<path class="st1" d="M373.7,20.69c4.09,0,5.29,1.08,6.35,5.12c7.6,2.93,12.34,9.9,12.12,17.98c-0.04,1.33,0.38,2.33,1.13,3.33
			c2.29,3.11,4.6,6.21,6.8,9.38c2.4,3.47,2.09,7.83-0.62,10.67c-1.73,1.82-3.85,2.76-6.06,2.76c-1.55,0-3.15-0.47-4.69-1.42
			c-3.1-1.93-6.12-4-9.14-6.05c-0.63-0.43-1.21-0.72-1.92-0.72c-0.2,0-0.41,0.02-0.64,0.07c-1.33,0.28-2.63,0.42-3.91,0.42
			c-3.32,0-6.5-0.94-9.49-2.77c-0.72-0.44-1.39-0.67-2.13-0.67c-0.35,0-0.71,0.05-1.1,0.15c-6.03,1.59-12.07,3.12-18.13,4.61
			c-1.13,0.28-1.88,0.8-2.45,1.82c-2.41,4.32-6.01,7.23-10.76,8.64c-0.94,0.28-1.4,0.91-1.8,1.69c-1.55,2.99-3.13,5.96-4.65,8.96
			c-1.3,2.57-3.23,4.31-6.1,4.98c-0.64,0.15-1.28,0.22-1.9,0.22c-4.71,0-8.79-4.02-8.36-8.96c0.35-3.92,0.99-7.81,1.48-11.71
			c0.14-1.12,0.34-2.21-0.29-3.33c-4.01-7.1-3.68-14.06,0.83-20.85c0.31-0.47,0.57-0.99,0.86-1.48c0,0,0,0,0,0c0,0,0,0,0,0
			c-1.19-4.03-0.07-5.89,4.89-8.12c1.42-0.64,2.56-0.97,3.59-0.97c1.61,0,2.91,0.83,4.47,2.6c3.33,0.35,6.71,0.52,9.77,2.13
			c0.19,0.1,0.37,0.13,0.56,0.13c0.44,0,0.89-0.21,1.32-0.32c7.57-1.92,15.13-3.86,22.7-5.76c0.95-0.24,1.64-0.65,2.23-1.48
			c1.31-1.81,3.01-3.24,4.93-4.4c0.78-0.48,1.64-0.89,2.07-1.78c0,0,0,0,0,0c0,0,0,0,0,0c-0.1-3.7,3.8-4.89,7.87-4.92
			C373.59,20.69,373.65,20.69,373.7,20.69 M373.7,18.69l-0.18,0c-2.61,0.02-6.15,0.49-8.23,2.64c-0.95,0.99-1.5,2.23-1.61,3.63
			c-0.19,0.17-0.48,0.34-0.8,0.53l-0.33,0.2c-2.33,1.41-4.13,3.03-5.51,4.94c-0.29,0.4-0.56,0.57-1.1,0.71
			c-4.68,1.17-9.35,2.36-14.02,3.55c-2.89,0.74-5.79,1.47-8.68,2.21c-0.17,0.04-0.35,0.1-0.52,0.15c-0.06,0.02-0.13,0.04-0.2,0.06
			c-2.98-1.49-6.08-1.8-9.09-2.09c-0.13-0.01-0.26-0.03-0.39-0.04c-1.34-1.41-3.04-2.69-5.43-2.69c-1.28,0-2.64,0.35-4.41,1.15
			c-4.7,2.11-7.4,4.51-6.21,9.67c-0.13,0.23-0.25,0.45-0.38,0.64c-4.97,7.48-5.27,15.2-0.9,22.94c0.25,0.44,0.2,0.93,0.08,1.84
			l-0.03,0.26c-0.17,1.33-0.35,2.66-0.54,3.98c-0.36,2.55-0.72,5.18-0.96,7.8c-0.25,2.84,0.68,5.58,2.63,7.71
			c1.99,2.17,4.8,3.42,7.72,3.42c0.79,0,1.58-0.09,2.36-0.27c3.29-0.77,5.79-2.8,7.42-6.03c0.95-1.88,1.95-3.78,2.91-5.61
			c0.58-1.11,1.16-2.22,1.74-3.33c0.32-0.61,0.43-0.65,0.59-0.69c5.24-1.56,9.26-4.78,11.93-9.58c0.28-0.51,0.55-0.7,1.19-0.86
			c6.55-1.61,12.49-3.12,18.16-4.62c0.22-0.06,0.41-0.09,0.59-0.09c0.23,0,0.55,0.04,1.09,0.37c3.33,2.03,6.87,3.06,10.53,3.06
			c1.42,0,2.88-0.16,4.33-0.47c0.08-0.02,0.16-0.03,0.22-0.03c0.12,0,0.29,0.03,0.8,0.37l0.66,0.45c2.77,1.89,5.63,3.84,8.54,5.65
			c1.84,1.14,3.77,1.72,5.74,1.72c2.76,0,5.43-1.2,7.5-3.38c3.39-3.56,3.73-8.98,0.82-13.19c-1.85-2.67-3.8-5.32-5.69-7.88
			l-1.14-1.55c-0.56-0.76-0.76-1.33-0.74-2.09c0.24-8.53-4.62-16.08-12.46-19.52C380.39,20.09,378.32,18.69,373.7,18.69L373.7,18.69
			z"/>
	</g>
	<g>
		<path d="M320.29,43.41c-7.19,1.78-11.6,9.07-9.81,16.2c1.83,7.28,8.9,11.52,16.18,9.71c7.3-1.82,11.52-8.88,9.69-16.18
			C334.57,46.06,327.31,41.67,320.29,43.41z"/>
		<path d="M370.33,30.69c-7.09,1.75-11.47,9.09-9.72,16.29c1.69,6.94,9.12,11.37,16.13,9.61c7.35-1.85,11.57-8.82,9.74-16.12
			C384.65,33.13,377.63,28.88,370.33,30.69z"/>
	</g>
	<path d="M354.45,53.43c-0.83-0.16-1.99,1.07-2.38-0.28c-0.38-1.27,1.05-1.25,1.86-1.47c0.82-0.22,2.04-0.91,2.38,0.32
		C356.71,53.44,355.07,52.9,354.45,53.43z"/>
	<path d="M344.31,54.07c0.76,0.04,1.89-0.87,2.08,0.51c0.19,1.36-1.24,1.07-2,1.3c-0.69,0.21-1.85,0.93-2.04-0.44
		C342.15,54.07,343.64,54.52,344.31,54.07z"/>
	<path class="st1" d="M318.83,57.31c-0.08,0.76,1.1,1.81-0.34,2.48c-0.7,0.32-4.08-0.91-4.25-1.47c-0.16-0.55,2.13-3.2,2.95-3.4
		C317.99,54.71,318.28,55.12,318.83,57.31z"/>
	<path class="st1" d="M327.38,54.93c0.13-0.93-1.16-2.13,0.52-2.69c0.97-0.32,4.26,1.04,4.13,1.61c-0.36,1.56-1.64,2.64-2.92,3.13
		C327.49,57.59,327.95,55.69,327.38,54.93z"/>
	<path class="st1" d="M326.85,60.64c-0.43,1.33-0.19,2.98-1.5,4c-0.5,0.39-3.19-1.94-3.33-2.92c-0.23-1.62,1.21-1.34,2.03-1.54
		C324.94,59.97,326.08,59.01,326.85,60.64z"/>
	<path class="st1" d="M321.85,51.54c-0.89-0.14-2.25,1.11-2.46-0.52c-0.18-1.4,0.09-3.03,1.31-4.09c0.45-0.39,3.21,1.95,3.33,2.92
		C324.25,51.62,322.55,50.94,321.85,51.54z"/>
	<path class="st2" d="M367.65,47.65c-1.58,0.28-3.29-0.95-3.61-2.58c-0.32-1.64,0.87-3.36,2.5-3.62c1.85-0.29,3.17,0.65,3.54,2.52
		C370.39,45.61,369.23,47.37,367.65,47.65z"/>
	<path class="st3" d="M372.28,39.97c-1.65,0.38-3.4-0.73-3.72-2.35c-0.32-1.66,0.81-3.29,2.52-3.63c1.56-0.32,3.16,0.71,3.57,2.3
		C375.06,37.9,373.98,39.58,372.28,39.97z"/>
	<path class="st4" d="M382.35,40.18c0.45,1.67-0.55,3.3-2.29,3.74c-1.65,0.41-3.17-0.48-3.61-2.12c-0.46-1.71,0.48-3.47,2.07-3.87
		C380.14,37.51,381.91,38.55,382.35,40.18z"/>
	<path class="st5" d="M375.43,52.13c-1.74,0.41-3.16-0.44-3.59-2.15c-0.44-1.72,0.56-3.41,2.24-3.8c1.54-0.35,3.24,0.68,3.66,2.24
		C378.21,50.13,377.23,51.71,375.43,52.13z"/>
</g>
<linearGradient id="SVGID_2_" gradientUnits="userSpaceOnUse" x1="306.0362" y1="76.787" x2="327.388" y2="76.787">
	<stop  offset="0" style="stop-color:#2D2E83"/>
	<stop  offset="0.5193" style="stop-color:#662983"/>
	<stop  offset="1" style="stop-color:#951B81"/>
</linearGradient>
<path style="fill:url(#SVGID_2_);stroke:#FFFFFF;stroke-width:2;stroke-linecap:round;" d="M307.61,70.2c0,0,5.61,3.72,6.28,5.67
	c3.33-3.61,9.11-2.89,13.5-0.28c-14.44,6.11-14.22,7.78-14.22,7.78l-7.13-11.19L307.61,70.2z"/>
<g>
	<g>
		<path class="st50" d="M93.87,124.3c-4.47-1.02-9.19-2.7-14.31-3.93c-5.12-1.23-10-2-14.63-2.32c1.08-2.16,2.24-4.28,3.48-6.37
			c1.24-2.08,2.56-4.43,3.96-7.06c2.26-4.32,4.53-9.34,6.79-15.05c2.26-5.71,4.5-11.53,6.71-17.48c2.21-5.94,4.26-11.73,6.14-17.36
			c1.88-5.63,3.58-10.69,5.09-15.17c0.32-1.08,0.54-2.04,0.65-2.89c0.11-0.85,0.16-1.66,0.16-2.43c0-1.85-0.43-3.47-1.29-4.86
			c-0.86-1.39-1.81-2.55-2.83-3.47c-1.03-0.93-2.02-1.66-2.99-2.2c-0.97-0.54-1.56-0.89-1.78-1.04c-1.51,6.48-3.37,14.16-5.58,23.04
			c-2.21,8.88-4.64,17.83-7.28,26.86c-2.64,9.03-5.5,17.59-8.57,25.7c-3.06,8.08-6.26,14.66-9.59,19.75
			c-0.05,0.02-0.11,0.04-0.19,0.04h-0.32c-0.32,0-1.29,0.16-2.91,0.46c-1.62,0.31-3.56,0.85-5.82,1.62
			c-2.26,0.77-4.66,1.74-7.19,2.89c-2.53,1.16-4.9,2.58-7.11,4.28c-2.21,1.7-4.02,3.66-5.42,5.9c-1.4,2.24-2.1,4.75-2.1,7.52
			c0,1.23,0.4,2.39,1.21,3.47c0.81,1.08,2.78,1.62,5.9,1.62c1.29,0,2.83-0.27,4.61-0.81c1.78-0.54,3.75-1.5,5.9-2.89
			c2.16-1.39,4.47-3.36,6.95-5.9c2.48-2.55,5.17-5.83,8.08-9.84c0,0,3.29,0.69,4.04,0.69c1.4,0,3.29,0.15,5.66,0.46
			c2.37,0.31,5.33,0.92,8.81,2.08c81.64,27.27,110.98,31.94,196.9,40.01c1.29,0.12,117.72,12.07,157.13-20.28
			c4.11-4,8.28-8.91,8.3-16.33c0.01-4.44-0.85-5.98-1.28-7.83c0,0-48.89,24.59-148.65,24.27C151.52,149,93.87,124.3,93.87,124.3z
			 M47.39,132.87c-1.78,1.85-3.66,3.47-5.66,4.86c-1.99,1.39-3.99,2.35-5.98,2.89c-1.99,0.54-3.74,0.35-5.25-0.58
			c0.32-2.63,1.62-4.71,3.88-6.25c2.26-1.54,4.69-2.78,7.28-3.7c3.02-1.08,6.41-1.85,10.19-2.31
			C50.65,129.32,49.16,131.02,47.39,132.87z M58.01,118l0.13-0.19C58.14,117.91,58.09,117.97,58.01,118z"/>
		<path class="st50" d="M92.01,88.12c-1.78,2.37-3.37,5.2-4.77,8.49c-1.4,3.29-2.1,7.03-2.1,11.24c0,1.62,0.24,3.29,0.73,5.01
			c0.49,1.73,1.21,3.34,2.18,4.85c0.97,1.51,2.24,2.75,3.8,3.72c1.56,0.97,3.48,1.46,5.74,1.46c2.69,0,5.04-0.73,7.03-2.18
			c1.99-1.46,3.26-2.56,3.8-3.31c1.4,0.54,2.75,0.81,4.04,0.81c2.05,0,3.8-0.3,5.25-0.89c1.46-0.59,2.59-1.29,3.39-2.1
			c0.13-0.13,0.24-0.26,0.36-0.39c0.41,1,0.9,1.97,1.5,2.89c0.97,1.51,2.24,2.75,3.8,3.72c1.56,0.97,3.48,1.46,5.74,1.46
			c2.69,0,5.04-0.73,7.03-2.18c1.99-1.46,3.26-2.56,3.8-3.31c1.4,0.54,2.75,0.81,4.04,0.81c2.05,0,3.8-0.3,5.25-0.89
			c0.46-0.19,0.87-0.39,1.26-0.59c0.1,1.38,0.38,2.55,0.84,3.5c0.59,1.24,1.32,2.24,2.18,2.99s1.78,1.27,2.75,1.54
			c0.97,0.27,1.88,0.4,2.75,0.4c3.34,0,6.12-0.95,8.33-2.83c2.21-1.88,3.96-3.93,5.25-6.14c1.29-2.21,2.48-5.15,3.56-8.81
			l-0.32-0.32c-0.32-0.32-0.65-0.48-0.97-0.48l-0.32,0.16c-2.26,4.85-4.8,8.33-7.6,10.43c-2.8,2.1-5.12,3.15-6.95,3.15
			c-1.72,0-2.59-1.02-2.59-3.07c0-1.94,0.49-4.45,1.46-7.52c0.97-3.07,2.21-6.39,3.72-9.94c1.51-3.56,3.15-7.14,4.93-10.75
			c1.78-3.61,3.42-6.92,4.93-9.94c2.8-0.21,10.79-0.32,12.62-0.1c3.13,0.22,5.66,0.51,7.6,0.89c1.94,0.38,3.48,0.76,4.61,1.13
			c1.13,0.38,1.96,0.7,2.51,0.97c0.54,0.27,0.97,0.4,1.29,0.4c0.21,0,0.4-0.21,0.57-0.65c0.16-0.43,0.27-0.91,0.32-1.46
			c0.05-0.54,0.11-1.05,0.16-1.54c0.05-0.49,0.08-0.78,0.08-0.89c0-1.62-0.32-2.94-0.97-3.96c-0.65-1.02-1.35-1.86-2.1-2.51
			c-0.86-0.75-1.83-1.35-2.91-1.78c-0.86-0.21-2.53-0.51-5.01-0.89c-2.48-0.38-9.77,0.51-13.75,1.16c0.54-0.97,0.97-1.83,1.29-2.59
			c0.32-0.75,0.49-1.56,0.49-2.43c0-1.08-0.38-2.13-1.13-3.15c-0.75-1.02-1.62-1.91-2.59-2.67c-0.97-0.75-1.97-1.37-2.99-1.86
			c-1.03-0.49-1.75-0.73-2.18-0.73c-0.75,2.37-1.46,4.39-2.1,6.06c-0.65,1.67-1.35,3.45-2.1,5.33c-0.76,1.89-1.46,3.53-2.1,4.93
			c-2.91,0.75-5.31,1.37-7.19,1.86c-1.89,0.48-3.58,0.73-5.09,0.73c-2.91,0-4.37-1.08-4.37-3.23c0-1.29,0.32-2.15,0.97-2.59
			c0.65-0.43,1.24-0.65,1.78-0.65c0.43,0,0.73,0.08,0.89,0.24c0.16,0.16,0.35,0.24,0.57,0.24c0.32,0,0.49-0.16,0.49-0.49
			c0-0.21-0.21-0.48-0.65-0.81c-0.17-0.13-0.39-0.23-0.65-0.31c-0.84-0.25-1.76-0.04-2.5,0.43c-2.54,1.6-3.8,3.5-3.8,5.7
			c0,1.83,0.94,3.5,2.83,5.01c1.89,1.51,4.39,2.26,7.52,2.26c0.86,0,1.78-0.05,2.75-0.16c0.97-0.11,1.99-0.38,3.07-0.81
			c-1.19,2.8-2.37,5.77-3.56,8.89c-1.19,3.13-2.26,6.28-3.23,9.46c-0.97,3.18-1.78,6.22-2.42,9.14c-0.37,1.66-0.62,3.2-0.78,4.65
			c-0.58,0.34-1.17,0.65-1.81,0.93c-0.86,0.38-1.78,0.57-2.75,0.57c-0.86,0-1.51-0.11-1.94-0.32c1.72-2.16,3.42-4.98,5.09-8.49
			c1.67-3.5,2.51-7.2,2.51-11.08c0-0.54,0-1.05,0-1.54s-0.06-1-0.16-1.54c0-0.75-0.19-1.72-0.57-2.91c-0.38-1.18-0.92-2.32-1.62-3.4
			c-0.7-1.08-1.64-2.02-2.83-2.83c-1.19-0.81-2.64-1.21-4.37-1.21c-1.73,0-3.13,0.27-4.2,0.81c-1.08,0.54-2.05,1.13-2.91,1.78
			c-0.86-1.4-1.48-2.24-1.86-2.51c-0.38-0.27-0.67-0.4-0.89-0.4c-0.65,0.22-1.83,1-3.56,2.34c-1.73,1.35-3.48,3.21-5.25,5.58
			c-1.78,2.37-3.37,5.2-4.77,8.49c-1.4,3.29-2.1,7.03-2.1,11.24c0,1.19,0.13,2.41,0.4,3.65c-0.23,0.15-0.46,0.3-0.72,0.47
			c-0.75,0.49-1.56,0.92-2.42,1.29c-0.86,0.38-1.78,0.57-2.75,0.57c-0.86,0-1.51-0.11-1.94-0.32c1.72-2.16,3.42-4.98,5.09-8.49
			c1.67-3.5,2.51-7.2,2.51-11.08c0-0.54,0-1.05,0-1.54s-0.06-1-0.16-1.54c0-0.75-0.19-1.72-0.57-2.91c-0.38-1.18-0.92-2.32-1.62-3.4
			c-0.7-1.08-1.64-2.02-2.83-2.83c-1.19-0.81-2.64-1.21-4.37-1.21c-1.73,0-3.13,0.27-4.2,0.81c-1.08,0.54-2.05,1.13-2.91,1.78
			c-0.86-1.4-1.48-2.24-1.86-2.51c-0.38-0.27-0.67-0.4-0.89-0.4c-0.65,0.22-1.83,1-3.56,2.34C95.54,83.89,93.79,85.75,92.01,88.12z
			 M140.19,99.35c0.38-1.46,0.86-2.8,1.46-4.04c0.59-1.24,1.27-2.29,2.02-3.15c0.75-0.86,1.56-1.29,2.42-1.29
			c0.65,0.22,1.02,1.03,1.13,2.43c0.11,1.4,0.16,2.91,0.16,4.53c0,0.76-0.06,1.51-0.16,2.26c-0.11,0.76-0.27,1.46-0.48,2.1
			c-0.43,1.94-0.97,3.67-1.62,5.17c-0.65,1.51-1.4,2.86-2.26,4.04c-1.29-0.43-2.16-1.56-2.59-3.39c-0.43-1.83-0.65-3.34-0.65-4.53
			C139.62,102.18,139.81,100.81,140.19,99.35z M128.06,102.02c1.24-2.48,2.77-4.69,4.61-6.63c-0.11,0.65-0.19,1.32-0.24,2.02
			c-0.06,0.7-0.08,1.38-0.08,2.02c0,2.91,0.46,5.88,1.37,8.89c0.92,3.02,2.77,5.39,5.58,7.11c-1.51,1.4-2.8,2.32-3.88,2.75
			c-1.08,0.43-1.89,0.65-2.42,0.65c-2.16-0.21-3.83-1-5.01-2.34c-1.19-1.35-1.78-3.48-1.78-6.39S126.82,104.5,128.06,102.02z
			 M105.27,99.35c0.38-1.46,0.86-2.8,1.46-4.04c0.59-1.24,1.27-2.29,2.02-3.15c0.75-0.86,1.56-1.29,2.42-1.29
			c0.65,0.22,1.02,1.03,1.13,2.43c0.11,1.4,0.16,2.91,0.16,4.53c0,0.76-0.06,1.51-0.16,2.26c-0.11,0.76-0.27,1.46-0.48,2.1
			c-0.43,1.94-0.97,3.67-1.62,5.17c-0.65,1.51-1.4,2.86-2.26,4.04c-1.29-0.43-2.16-1.56-2.59-3.39c-0.43-1.83-0.65-3.34-0.65-4.53
			C104.7,102.18,104.89,100.81,105.27,99.35z M98.8,108.33c0.92,3.02,2.77,5.39,5.58,7.11c-1.51,1.4-2.8,2.32-3.88,2.75
			c-1.08,0.43-1.89,0.65-2.42,0.65c-2.16-0.21-3.83-1-5.01-2.34c-1.19-1.35-1.78-3.48-1.78-6.39s0.62-5.6,1.86-8.08
			c1.24-2.48,2.77-4.69,4.61-6.63c-0.11,0.65-0.19,1.32-0.24,2.02c-0.06,0.7-0.08,1.38-0.08,2.02
			C97.43,102.35,97.88,105.31,98.8,108.33z"/>
		<linearGradient id="SVGID_3_" gradientUnits="userSpaceOnUse" x1="188.0242" y1="77.9857" x2="271.8947" y2="77.9857">
			<stop  offset="0" style="stop-color:#CE7329"/>
			<stop  offset="0.1292" style="stop-color:#EF9248"/>
			<stop  offset="0.3047" style="stop-color:#F6C27B"/>
			<stop  offset="0.3876" style="stop-color:#FAD895"/>
			<stop  offset="0.5449" style="stop-color:#E3C4AD"/>
			<stop  offset="0.7135" style="stop-color:#CEB1BD"/>
			<stop  offset="0.7843" style="stop-color:#BA94A8"/>
			<stop  offset="0.8755" style="stop-color:#A47591"/>
			<stop  offset="0.9507" style="stop-color:#976385"/>
			<stop  offset="1" style="stop-color:#935C81"/>
		</linearGradient>
		<path class="st7" d="M229.74,24.76c-20.11-1.43-35.19,9.28-36.49,10.46c-2.4,2.2-3.72,3.48-3.96,3.87
			c-0.24,0.39-0.48,0.84-0.72,1.35c-0.36,1.03-0.54,2.26-0.54,3.68c0,1.42,0.39,3.03,1.17,4.84c0.78,1.81,2.25,3.61,4.41,5.42
			c0.24,0,0.81-0.64,1.71-1.94c0.9-1.29,2.43-2.97,4.6-5.03c1.1-1.05,12.61-11.1,26.89-10.95c13.13,0.13,24.11,2.57,31.66,9.89
			c7.78,7.54,5.45,20.89,2.54,27.49c-2.04,4.26-4.57,8-7.57,11.23c-3,3.23-6.25,5.9-9.73,8.03c-3.49,2.13-7.12,3.71-10.9,4.74
			c-3.78,1.03-7.48,1.55-11.08,1.55c-0.84,0-1.62-0.03-2.34-0.1c-0.72-0.06-1.5-0.16-2.34-0.29c2.64-7.1,4.74-12.49,6.31-16.16
			c1.56-3.68,2.7-6.42,3.42-8.23c0.72-1.81,1.17-3,1.35-3.58c0.18-0.58,0.27-1.32,0.27-2.22c0-1.55-0.48-2.87-1.44-3.97
			c-0.96-1.1-2.04-2.03-3.24-2.81c-1.2-0.77-2.34-1.39-3.42-1.84c-1.08-0.45-1.74-0.74-1.98-0.87c0,0.77-0.15,1.74-0.45,2.9
			c-0.3,1.16-0.63,2.32-0.99,3.49l-1.26,4.06c-1.2,2.97-2.67,6.71-4.41,11.23c-1.74,4.52-3.45,9.61-5.14,15.29
			c-3.13-1.16-5.74-2.48-7.84-3.97c-2.1-1.48-3.78-2.84-5.05-4.07c-1.26-1.22-2.22-2.26-2.88-3.1c-0.66-0.84-1.05-1.26-1.17-1.26
			c-0.24,0-0.48,0.07-0.72,0.19c-0.24,0.13-0.36,0.32-0.36,0.58c0,0.26,0.06,0.45,0.18,0.58c0,0.13,0.06,0.19,0.18,0.19
			c0.84,1.68,1.8,3.19,2.88,4.55c1.08,1.36,2.58,2.84,4.51,4.45c1.92,1.62,4.38,3.13,7.39,4.55c0.24,0.13,0.51,0.26,0.81,0.39
			c0.3,0.13,0.63,0.26,0.99,0.39c-0.6,1.94-1.2,4.07-1.8,6.39c-0.6,2.32-1.14,4.55-1.62,6.68c-0.48,2.13-0.87,4.1-1.17,5.9
			c-0.3,1.81-0.45,3.23-0.45,4.26c0,1.81,0.36,3.22,1.08,4.26c0.72,1.03,1.5,1.84,2.34,2.42c0.84,0.58,1.65,1,2.43,1.26
			c0.78,0.26,1.29,0.39,1.53,0.39c0-2.07,0.12-3.87,0.36-5.42c0.24-1.55,0.48-2.9,0.72-4.07c0.36-1.29,0.72-2.45,1.08-3.48
			c0.72-1.81,1.59-4.07,2.61-6.78c1.02-2.71,2.13-5.55,3.33-8.52c3.36,0.65,6.55,0.97,9.55,0.97c4.33,0,8.74-0.74,13.25-2.23
			c4.51-1.48,8.83-3.71,12.97-6.68c4.14-2.97,10.41-7.15,18.55-23.91C277.13,56.03,265.9,27.34,229.74,24.76z"/>
		<linearGradient id="SVGID_4_" gradientUnits="userSpaceOnUse" x1="253.5839" y1="101.1322" x2="420.2714" y2="101.1322">
			<stop  offset="0" style="stop-color:#FFF4E2"/>
			<stop  offset="0.0168" style="stop-color:#D1CED2"/>
			<stop  offset="0.0347" style="stop-color:#A5ACC3"/>
			<stop  offset="0.0531" style="stop-color:#7D91B5"/>
			<stop  offset="0.0717" style="stop-color:#597CAA"/>
			<stop  offset="0.0905" style="stop-color:#3B6DA1"/>
			<stop  offset="0.1096" style="stop-color:#21639B"/>
			<stop  offset="0.1291" style="stop-color:#075E98"/>
			<stop  offset="0.15" style="stop-color:#005C97"/>
			<stop  offset="0.3" style="stop-color:#FFF4E2"/>
			<stop  offset="0.47" style="stop-color:#005C97"/>
			<stop  offset="0.64" style="stop-color:#C91A50"/>
			<stop  offset="0.7472" style="stop-color:#FFF4E2"/>
			<stop  offset="0.8595" style="stop-color:#005C97"/>
			<stop  offset="0.927" style="stop-color:#C91A50"/>
			<stop  offset="1" style="stop-color:#FFF4E2"/>
		</linearGradient>
		<path class="st8" d="M419.46,105.74c-0.22-0.11-0.43-0.16-0.65-0.16l-0.32,0.16c-2.16,4.96-4.37,8.54-6.63,10.75
			c-2.26,2.21-4.15,3.31-5.66,3.31c-0.86,0-1.43-0.4-1.7-1.21c-0.27-0.81-0.4-1.8-0.4-2.99c0-2.69,0.65-5.55,1.94-8.57
			c1.29-3.02,2.69-5.95,4.2-8.81c1.51-2.85,2.91-5.52,4.2-8c1.29-2.48,1.94-4.53,1.94-6.14c0-0.97-0.38-1.91-1.13-2.83
			c-0.76-0.91-1.59-1.75-2.51-2.51c-0.92-0.75-1.75-1.37-2.51-1.86c-0.75-0.48-1.19-0.73-1.29-0.73c-0.22,0.86-0.54,1.83-0.97,2.91
			c-0.43,1.08-0.92,2.1-1.46,3.07c-0.54,1.19-1.19,2.32-1.94,3.4h-4.53c-0.75,0-1.56-0.03-2.42-0.08c-0.86-0.05-1.64-0.13-2.34-0.24
			c-0.7-0.11-1.29-0.21-1.78-0.32c-0.49-0.11-0.73-0.27-0.73-0.48c0.21-0.21,0.38-0.4,0.48-0.57c0.11-0.16,0.32-0.62,0.65-1.37
			c0-0.11-0.67-0.32-2.02-0.65c-1.35-0.32-2.94-0.7-4.77-1.13c-0.54-0.21-1.03-0.32-1.46-0.32c-0.43,0-0.75,0-0.97,0
			c-0.86,0-1.4,0.3-1.62,0.89c-0.22,0.59-0.32,1.48-0.32,2.67c0,1.19,0.32,2.61,0.97,4.28c0.65,1.67,1.88,3.1,3.72,4.29
			c-0.65,3.13-1.59,6.5-2.83,10.1c-1.23,3.59-3.59,8.6-6.36,11.26c-0.88,0.79-2.01,1.69-3.42,2.73c-1.4,0.97-3.31,2.1-5.74,3.4
			c-2.43,1.29-4.83,1.94-7.2,1.94c-3.13,0-5.63-1.21-7.52-3.64c-1.89-2.43-2.83-5.15-2.83-8.17c0-1.94,0.32-3.88,0.97-5.82
			c0.54,0.54,1.4,1,2.59,1.37c1.18,0.38,2.64,0.57,4.37,0.57c2.48,0,4.85-0.46,7.11-1.37c2.26-0.91,4.23-2.16,5.9-3.72
			c1.67-1.56,2.99-3.37,3.96-5.42c0.97-2.05,1.46-4.2,1.46-6.47c0-2.26-0.95-4.37-2.83-6.31c-1.89-1.94-4.55-2.91-8-2.91
			c-2.8,0-5.5,0.81-8.08,2.42s-4.91,3.77-6.95,6.47c-2.05,2.7-3.67,5.74-4.85,9.14c-1.08,3.08-1.64,6.28-1.74,9.58
			c-0.44-0.08-0.89-0.17-1.33-0.29c-1.19-0.32-2.16-0.75-2.91-1.29c0.32-0.86,0.78-2.07,1.37-3.64c0.59-1.56,1.13-3.29,1.62-5.17
			c0.48-1.88,0.91-3.8,1.29-5.74c0.38-1.94,0.57-3.72,0.57-5.33c0-1.83-0.27-3.31-0.81-4.45c-0.54-1.13-1.56-1.7-3.07-1.7
			c-1.29,0-2.48,0.59-3.56,1.78c-1.08,1.19-2,2.61-2.75,4.28c-0.75,1.67-1.35,3.37-1.78,5.09c-0.43,1.73-0.65,3.07-0.65,4.04
			c0,2.16,0.32,4.12,0.97,5.9s1.56,3.21,2.75,4.29c-0.65,1.19-1.43,2.53-2.34,4.04c-0.92,1.51-1.97,2.91-3.15,4.2
			c-1.19,1.29-2.48,2.4-3.88,3.31c-1.4,0.92-2.91,1.37-4.53,1.37c-1.83,0-3.1-0.59-3.8-1.78c-0.7-1.18-1.05-2.75-1.05-4.69
			c0-2.37,0.35-4.71,1.05-7.03c0.7-2.32,1.56-4.55,2.59-6.71c1.02-2.15,2.13-4.2,3.31-6.14c1.18-1.94,2.26-3.66,3.23-5.17v-0.16
			c-1.29-1.08-2.42-1.88-3.4-2.43c-0.97-0.54-1.97-1.05-2.99-1.54c-1.03-0.48-1.86-0.73-2.51-0.73c-1.83,2.48-3.31,4.85-4.45,7.11
			s-2.18,5.01-3.15,8.25c-0.97,3.23-1.56,6.85-1.78,10.83c-1.83,4.53-3.8,7.71-5.9,9.54c-2.1,1.83-3.91,2.75-5.42,2.75
			c-1.29,0-2.13-0.46-2.51-1.38c-0.38-0.91-0.57-2.07-0.57-3.48c0-2.69,0.65-5.55,1.94-8.57c1.29-3.02,2.69-5.95,4.2-8.81
			c1.51-2.85,2.91-5.52,4.2-8c1.29-2.48,1.94-4.53,1.94-6.14c0-0.86-0.38-1.75-1.13-2.67c-0.76-0.92-1.59-1.75-2.51-2.51
			c-0.92-0.75-1.78-1.38-2.59-1.86c-0.81-0.49-1.27-0.73-1.38-0.73c-0.43,2.16-1.32,4.42-2.67,6.79c-1.35,2.37-2.72,5.01-4.12,7.92
			c-1.4,2.91-2.67,6.14-3.8,9.7c-1.13,3.56-1.7,7.6-1.7,12.13c0,0.26,0.01,0.51,0.02,0.77c-0.06,0.04-0.12,0.08-0.18,0.12
			c-0.75,0.49-1.56,0.92-2.42,1.29c-0.86,0.38-1.78,0.57-2.75,0.57c-0.86,0-1.51-0.11-1.94-0.32c1.72-2.16,3.42-4.98,5.09-8.49
			c1.67-3.5,2.51-7.2,2.51-11.08c0-0.54,0-1.05,0-1.54s-0.06-1-0.16-1.54c0-0.75-0.19-1.72-0.57-2.91c-0.38-1.18-0.92-2.32-1.62-3.4
			c-0.7-1.08-1.64-2.02-2.83-2.83c-1.19-0.81-2.64-1.21-4.37-1.21c-1.73,0-3.13,0.27-4.2,0.81c-1.08,0.54-2.05,1.13-2.91,1.78
			c-0.86-1.4-1.48-2.24-1.86-2.51c-0.38-0.27-0.67-0.4-0.89-0.4c-0.65,0.22-1.83,1-3.56,2.34c-1.73,1.35-3.48,3.21-5.25,5.58
			c-1.78,2.37-3.37,5.2-4.77,8.49c-1.4,3.29-2.1,7.03-2.1,11.24c0,1.62,0.24,3.29,0.73,5.01c0.49,1.73,1.21,3.34,2.18,4.85
			c0.97,1.51,2.24,2.75,3.8,3.72c1.56,0.97,3.48,1.46,5.74,1.46c2.69,0,5.04-0.73,7.03-2.18c1.99-1.46,3.26-2.56,3.8-3.31
			c1.4,0.54,2.75,0.81,4.04,0.81c2.05,0,3.8-0.3,5.25-0.89c1.11-0.45,2.02-0.96,2.76-1.54c0.45,1.65,1.17,3.04,2.17,4.13
			c1.83,2,3.77,2.99,5.82,2.99c1.62,0,3.13-0.38,4.53-1.13c1.4-0.75,2.67-1.72,3.8-2.91c1.13-1.18,2.15-2.42,3.07-3.72
			c0.92-1.29,1.7-2.53,2.34-3.72c0.75,4.31,2.29,7.33,4.61,9.05c2.32,1.73,5.09,2.59,8.33,2.59c2.26,0,4.31-0.59,6.14-1.78
			c1.83-1.19,3.48-2.64,4.93-4.37c1.46-1.72,2.69-3.58,3.72-5.58c1.02-1.99,1.8-3.74,2.34-5.25c1.18,0.54,2.32,0.89,3.4,1.05
			c0.46,0.07,0.89,0.12,1.31,0.15c0.04,1.52,0.27,3.22,0.71,5.1c0.49,2.05,1.32,3.96,2.51,5.74c1.19,1.78,2.75,3.26,4.69,4.45
			c1.94,1.18,4.31,1.78,7.11,1.78c3.77,0,7.09-0.81,9.94-2.42c2.85-1.62,5.2-3.4,7.03-5.34c1.59-1.67,3.04-3.55,4.33-5.64
			c0,0,0.01-0.01,0.01-0.01c0.92-1.43,3.95-6.07,5.03-8.5c1.08-2.43,2.64-5.74,4.69-9.94c0.43,0.11,0.86,0.16,1.29,0.16
			c0.43,0,0.91,0,1.46,0c1.18,0,2.32-0.05,3.4-0.16c1.08-0.11,2.21-0.27,3.39-0.49c-1.19,2.91-2.24,6.04-3.15,9.38
			c-0.92,3.34-1.37,6.58-1.37,9.7c0,3.88,0.89,6.82,2.67,8.81c1.78,2,3.69,2.99,5.74,2.99c2.37,0,4.5-0.91,6.39-2.75
			c1.88-1.83,3.5-3.85,4.85-6.06c1.35-2.21,2.37-4.28,3.07-6.22c0.7-1.94,1.05-3.02,1.05-3.23
			C420.27,106.28,420,106.06,419.46,105.74z M357.22,94.75c1.51-1.94,2.99-3.31,4.45-4.12s2.72-1.21,3.8-1.21
			c1.51,0,2.26,0.7,2.26,2.1c0,0.86-0.35,1.92-1.05,3.15c-0.7,1.24-1.62,2.4-2.75,3.48c-1.13,1.08-2.45,2-3.96,2.75
			c-1.51,0.75-3.07,1.13-4.69,1.13c-1.08,0-1.78-0.05-2.1-0.16C354.36,99.27,355.71,96.9,357.22,94.75z M268.94,119.97
			c-1.08,0.43-1.89,0.65-2.42,0.65c-2.16-0.21-3.83-1-5.01-2.34c-1.19-1.35-1.78-3.48-1.78-6.39s0.62-5.6,1.86-8.08
			c1.24-2.48,2.77-4.69,4.61-6.63c-0.11,0.65-0.19,1.32-0.24,2.02c-0.06,0.7-0.08,1.38-0.08,2.02c0,2.91,0.46,5.88,1.37,8.89
			c0.92,3.02,2.77,5.39,5.58,7.11C271.31,118.62,270.02,119.54,268.94,119.97z M280.75,101.86c-0.11,0.76-0.27,1.46-0.48,2.1
			c-0.43,1.94-0.97,3.67-1.62,5.17c-0.65,1.51-1.4,2.86-2.26,4.04c-1.29-0.43-2.16-1.56-2.59-3.39c-0.43-1.83-0.65-3.34-0.65-4.53
			c0-1.29,0.19-2.67,0.57-4.12c0.38-1.46,0.86-2.8,1.46-4.04c0.59-1.24,1.27-2.29,2.02-3.15c0.75-0.86,1.56-1.29,2.42-1.29
			c0.65,0.22,1.02,1.03,1.13,2.43c0.11,1.4,0.16,2.91,0.16,4.53C280.91,100.35,280.85,101.11,280.75,101.86z M339.43,100.49
			c-0.43,1.24-0.81,2.18-1.13,2.83c-0.11-0.21-0.19-0.35-0.24-0.4c-0.06-0.05-0.14-0.19-0.24-0.4c-0.86-1.62-1.29-3.5-1.29-5.66
			c0-0.65,0.11-1.59,0.32-2.83c0.21-1.24,0.54-2.43,0.97-3.56c0.43-1.13,0.91-2.13,1.46-2.99c0.54-0.86,1.13-1.29,1.78-1.29
			c0.86,0,1.29,0.81,1.29,2.42c0,0.97-0.16,2.16-0.49,3.56c-0.32,1.4-0.7,2.83-1.13,4.28C340.3,97.9,339.86,99.25,339.43,100.49z"/>
	</g>
	<g>
		<path class="st53" d="M93.87,124.3c-4.47-1.02-9.19-2.7-14.31-3.93c-5.12-1.23-10-2-14.63-2.32c1.08-2.16,2.24-4.28,3.48-6.37
			c1.24-2.08,2.56-4.43,3.96-7.06c2.26-4.32,4.53-9.34,6.79-15.05c2.26-5.71,4.5-11.53,6.71-17.48c2.21-5.94,4.26-11.73,6.14-17.36
			c1.88-5.63,3.58-10.69,5.09-15.17c0.32-1.08,0.54-2.04,0.65-2.89c0.11-0.85,0.16-1.66,0.16-2.43c0-1.85-0.43-3.47-1.29-4.86
			c-0.86-1.39-1.81-2.55-2.83-3.47c-1.03-0.93-2.02-1.66-2.99-2.2c-0.97-0.54-1.56-0.89-1.78-1.04c-1.51,6.48-3.37,14.16-5.58,23.04
			c-2.21,8.88-4.64,17.83-7.28,26.86c-2.64,9.03-5.5,17.59-8.57,25.7c-3.06,8.08-6.26,14.66-9.59,19.75
			c-0.05,0.02-0.11,0.04-0.19,0.04h-0.32c-0.32,0-1.29,0.16-2.91,0.46c-1.62,0.31-3.56,0.85-5.82,1.62
			c-2.26,0.77-4.66,1.74-7.19,2.89c-2.53,1.16-4.9,2.58-7.11,4.28c-2.21,1.7-4.02,3.66-5.42,5.9c-1.4,2.24-2.1,4.75-2.1,7.52
			c0,1.23,0.4,2.39,1.21,3.47c0.81,1.08,2.78,1.62,5.9,1.62c1.29,0,2.83-0.27,4.61-0.81c1.78-0.54,3.75-1.5,5.9-2.89
			c2.16-1.39,4.47-3.36,6.95-5.9c2.48-2.55,5.17-5.83,8.08-9.84c0,0,3.29,0.69,4.04,0.69c1.4,0,3.29,0.15,5.66,0.46
			c2.37,0.31,5.33,0.92,8.81,2.08c81.64,27.27,110.98,31.94,196.9,40.01c1.29,0.12,117.72,12.07,157.13-20.28
			c4.11-4,8.28-8.91,8.3-16.33c0.01-4.44-0.85-5.98-1.28-7.83c0,0-48.89,24.59-148.65,24.27C151.52,149,93.87,124.3,93.87,124.3z
			 M47.39,132.87c-1.78,1.85-3.66,3.47-5.66,4.86c-1.99,1.39-3.99,2.35-5.98,2.89c-1.99,0.54-3.74,0.35-5.25-0.58
			c0.32-2.63,1.62-4.71,3.88-6.25c2.26-1.54,4.69-2.78,7.28-3.7c3.02-1.08,6.41-1.85,10.19-2.31
			C50.65,129.32,49.16,131.02,47.39,132.87z M58.01,118l0.13-0.19C58.14,117.91,58.09,117.97,58.01,118z"/>
		<path class="st53" d="M92.01,88.12c-1.78,2.37-3.37,5.2-4.77,8.49c-1.4,3.29-2.1,7.03-2.1,11.24c0,1.62,0.24,3.29,0.73,5.01
			c0.49,1.73,1.21,3.34,2.18,4.85c0.97,1.51,2.24,2.75,3.8,3.72c1.56,0.97,3.48,1.46,5.74,1.46c2.69,0,5.04-0.73,7.03-2.18
			c1.99-1.46,3.26-2.56,3.8-3.31c1.4,0.54,2.75,0.81,4.04,0.81c2.05,0,3.8-0.3,5.25-0.89c1.46-0.59,2.59-1.29,3.39-2.1
			c0.13-0.13,0.24-0.26,0.36-0.39c0.41,1,0.9,1.97,1.5,2.89c0.97,1.51,2.24,2.75,3.8,3.72c1.56,0.97,3.48,1.46,5.74,1.46
			c2.69,0,5.04-0.73,7.03-2.18c1.99-1.46,3.26-2.56,3.8-3.31c1.4,0.54,2.75,0.81,4.04,0.81c2.05,0,3.8-0.3,5.25-0.89
			c0.46-0.19,0.87-0.39,1.26-0.59c0.1,1.38,0.38,2.55,0.84,3.5c0.59,1.24,1.32,2.24,2.18,2.99s1.78,1.27,2.75,1.54
			c0.97,0.27,1.88,0.4,2.75,0.4c3.34,0,6.12-0.95,8.33-2.83c2.21-1.88,3.96-3.93,5.25-6.14c1.29-2.21,2.48-5.15,3.56-8.81
			l-0.32-0.32c-0.32-0.32-0.65-0.48-0.97-0.48l-0.32,0.16c-2.26,4.85-4.8,8.33-7.6,10.43c-2.8,2.1-5.12,3.15-6.95,3.15
			c-1.72,0-2.59-1.02-2.59-3.07c0-1.94,0.49-4.45,1.46-7.52c0.97-3.07,2.21-6.39,3.72-9.94c1.51-3.56,3.15-7.14,4.93-10.75
			c1.78-3.61,3.42-6.92,4.93-9.94c2.8-0.21,10.79-0.32,12.62-0.1c3.13,0.22,5.66,0.51,7.6,0.89c1.94,0.38,3.48,0.76,4.61,1.13
			c1.13,0.38,1.96,0.7,2.51,0.97c0.54,0.27,0.97,0.4,1.29,0.4c0.21,0,0.4-0.21,0.57-0.65c0.16-0.43,0.27-0.91,0.32-1.46
			c0.05-0.54,0.11-1.05,0.16-1.54c0.05-0.49,0.08-0.78,0.08-0.89c0-1.62-0.32-2.94-0.97-3.96c-0.65-1.02-1.35-1.86-2.1-2.51
			c-0.86-0.75-1.83-1.35-2.91-1.78c-0.86-0.21-2.53-0.51-5.01-0.89c-2.48-0.38-9.77,0.51-13.75,1.16c0.54-0.97,0.97-1.83,1.29-2.59
			c0.32-0.75,0.49-1.56,0.49-2.43c0-1.08-0.38-2.13-1.13-3.15c-0.75-1.02-1.62-1.91-2.59-2.67c-0.97-0.75-1.97-1.37-2.99-1.86
			c-1.03-0.49-1.75-0.73-2.18-0.73c-0.75,2.37-1.46,4.39-2.1,6.06c-0.65,1.67-1.35,3.45-2.1,5.33c-0.76,1.89-1.46,3.53-2.1,4.93
			c-2.91,0.75-5.31,1.37-7.19,1.86c-1.89,0.48-3.58,0.73-5.09,0.73c-2.91,0-4.37-1.08-4.37-3.23c0-1.29,0.32-2.15,0.97-2.59
			c0.65-0.43,1.24-0.65,1.78-0.65c0.43,0,0.73,0.08,0.89,0.24c0.16,0.16,0.35,0.24,0.57,0.24c0.32,0,0.49-0.16,0.49-0.49
			c0-0.21-0.21-0.48-0.65-0.81c-0.17-0.13-0.39-0.23-0.65-0.31c-0.84-0.25-1.76-0.04-2.5,0.43c-2.54,1.6-3.8,3.5-3.8,5.7
			c0,1.83,0.94,3.5,2.83,5.01c1.89,1.51,4.39,2.26,7.52,2.26c0.86,0,1.78-0.05,2.75-0.16c0.97-0.11,1.99-0.38,3.07-0.81
			c-1.19,2.8-2.37,5.77-3.56,8.89c-1.19,3.13-2.26,6.28-3.23,9.46c-0.97,3.18-1.78,6.22-2.42,9.14c-0.37,1.66-0.62,3.2-0.78,4.65
			c-0.58,0.34-1.17,0.65-1.81,0.93c-0.86,0.38-1.78,0.57-2.75,0.57c-0.86,0-1.51-0.11-1.94-0.32c1.72-2.16,3.42-4.98,5.09-8.49
			c1.67-3.5,2.51-7.2,2.51-11.08c0-0.54,0-1.05,0-1.54s-0.06-1-0.16-1.54c0-0.75-0.19-1.72-0.57-2.91c-0.38-1.18-0.92-2.32-1.62-3.4
			c-0.7-1.08-1.64-2.02-2.83-2.83c-1.19-0.81-2.64-1.21-4.37-1.21c-1.73,0-3.13,0.27-4.2,0.81c-1.08,0.54-2.05,1.13-2.91,1.78
			c-0.86-1.4-1.48-2.24-1.86-2.51c-0.38-0.27-0.67-0.4-0.89-0.4c-0.65,0.22-1.83,1-3.56,2.34c-1.73,1.35-3.48,3.21-5.25,5.58
			c-1.78,2.37-3.37,5.2-4.77,8.49c-1.4,3.29-2.1,7.03-2.1,11.24c0,1.19,0.13,2.41,0.4,3.65c-0.23,0.15-0.46,0.3-0.72,0.47
			c-0.75,0.49-1.56,0.92-2.42,1.29c-0.86,0.38-1.78,0.57-2.75,0.57c-0.86,0-1.51-0.11-1.94-0.32c1.72-2.16,3.42-4.98,5.09-8.49
			c1.67-3.5,2.51-7.2,2.51-11.08c0-0.54,0-1.05,0-1.54s-0.06-1-0.16-1.54c0-0.75-0.19-1.72-0.57-2.91c-0.38-1.18-0.92-2.32-1.62-3.4
			c-0.7-1.08-1.64-2.02-2.83-2.83c-1.19-0.81-2.64-1.21-4.37-1.21c-1.73,0-3.13,0.27-4.2,0.81c-1.08,0.54-2.05,1.13-2.91,1.78
			c-0.86-1.4-1.48-2.24-1.86-2.51c-0.38-0.27-0.67-0.4-0.89-0.4c-0.65,0.22-1.83,1-3.56,2.34C95.54,83.89,93.79,85.75,92.01,88.12z
			 M140.19,99.35c0.38-1.46,0.86-2.8,1.46-4.04c0.59-1.24,1.27-2.29,2.02-3.15c0.75-0.86,1.56-1.29,2.42-1.29
			c0.65,0.22,1.02,1.03,1.13,2.43c0.11,1.4,0.16,2.91,0.16,4.53c0,0.76-0.06,1.51-0.16,2.26c-0.11,0.76-0.27,1.46-0.48,2.1
			c-0.43,1.94-0.97,3.67-1.62,5.17c-0.65,1.51-1.4,2.86-2.26,4.04c-1.29-0.43-2.16-1.56-2.59-3.39c-0.43-1.83-0.65-3.34-0.65-4.53
			C139.62,102.18,139.81,100.81,140.19,99.35z M128.06,102.02c1.24-2.48,2.77-4.69,4.61-6.63c-0.11,0.65-0.19,1.32-0.24,2.02
			c-0.06,0.7-0.08,1.38-0.08,2.02c0,2.91,0.46,5.88,1.37,8.89c0.92,3.02,2.77,5.39,5.58,7.11c-1.51,1.4-2.8,2.32-3.88,2.75
			c-1.08,0.43-1.89,0.65-2.42,0.65c-2.16-0.21-3.83-1-5.01-2.34c-1.19-1.35-1.78-3.48-1.78-6.39S126.82,104.5,128.06,102.02z
			 M105.27,99.35c0.38-1.46,0.86-2.8,1.46-4.04c0.59-1.24,1.27-2.29,2.02-3.15c0.75-0.86,1.56-1.29,2.42-1.29
			c0.65,0.22,1.02,1.03,1.13,2.43c0.11,1.4,0.16,2.91,0.16,4.53c0,0.76-0.06,1.51-0.16,2.26c-0.11,0.76-0.27,1.46-0.48,2.1
			c-0.43,1.94-0.97,3.67-1.62,5.17c-0.65,1.51-1.4,2.86-2.26,4.04c-1.29-0.43-2.16-1.56-2.59-3.39c-0.43-1.83-0.65-3.34-0.65-4.53
			C104.7,102.18,104.89,100.81,105.27,99.35z M98.8,108.33c0.92,3.02,2.77,5.39,5.58,7.11c-1.51,1.4-2.8,2.32-3.88,2.75
			c-1.08,0.43-1.89,0.65-2.42,0.65c-2.16-0.21-3.83-1-5.01-2.34c-1.19-1.35-1.78-3.48-1.78-6.39s0.62-5.6,1.86-8.08
			c1.24-2.48,2.77-4.69,4.61-6.63c-0.11,0.65-0.19,1.32-0.24,2.02c-0.06,0.7-0.08,1.38-0.08,2.02
			C97.43,102.35,97.88,105.31,98.8,108.33z"/>
		<path class="st53" d="M229.74,24.76c-20.11-1.43-35.19,9.28-36.49,10.46c-2.4,2.2-3.72,3.48-3.96,3.87
			c-0.24,0.39-0.48,0.84-0.72,1.35c-0.36,1.03-0.54,2.26-0.54,3.68c0,1.42,0.39,3.03,1.17,4.84c0.78,1.81,2.25,3.61,4.41,5.42
			c0.24,0,0.81-0.64,1.71-1.94c0.9-1.29,2.43-2.97,4.6-5.03c1.1-1.05,12.61-11.1,26.89-10.95c13.13,0.13,24.11,2.57,31.66,9.89
			c7.78,7.54,5.45,20.89,2.54,27.49c-2.04,4.26-4.57,8-7.57,11.23c-3,3.23-6.25,5.9-9.73,8.03c-3.49,2.13-7.12,3.71-10.9,4.74
			c-3.78,1.03-7.48,1.55-11.08,1.55c-0.84,0-1.62-0.03-2.34-0.1c-0.72-0.06-1.5-0.16-2.34-0.29c2.64-7.1,4.74-12.49,6.31-16.16
			c1.56-3.68,2.7-6.42,3.42-8.23c0.72-1.81,1.17-3,1.35-3.58c0.18-0.58,0.27-1.32,0.27-2.22c0-1.55-0.48-2.87-1.44-3.97
			c-0.96-1.1-2.04-2.03-3.24-2.81c-1.2-0.77-2.34-1.39-3.42-1.84c-1.08-0.45-1.74-0.74-1.98-0.87c0,0.77-0.15,1.74-0.45,2.9
			c-0.3,1.16-0.63,2.32-0.99,3.49l-1.26,4.06c-1.2,2.97-2.67,6.71-4.41,11.23c-1.74,4.52-3.45,9.61-5.14,15.29
			c-3.13-1.16-5.74-2.48-7.84-3.97c-2.1-1.48-3.78-2.84-5.05-4.07c-1.26-1.22-2.22-2.26-2.88-3.1c-0.66-0.84-1.05-1.26-1.17-1.26
			c-0.24,0-0.48,0.07-0.72,0.19c-0.24,0.13-0.36,0.32-0.36,0.58c0,0.26,0.06,0.45,0.18,0.58c0,0.13,0.06,0.19,0.18,0.19
			c0.84,1.68,1.8,3.19,2.88,4.55c1.08,1.36,2.58,2.84,4.51,4.45c1.92,1.62,4.38,3.13,7.39,4.55c0.24,0.13,0.51,0.26,0.81,0.39
			c0.3,0.13,0.63,0.26,0.99,0.39c-0.6,1.94-1.2,4.07-1.8,6.39c-0.6,2.32-1.14,4.55-1.62,6.68c-0.48,2.13-0.87,4.1-1.17,5.9
			c-0.3,1.81-0.45,3.23-0.45,4.26c0,1.81,0.36,3.22,1.08,4.26c0.72,1.03,1.5,1.84,2.34,2.42c0.84,0.58,1.65,1,2.43,1.26
			c0.78,0.26,1.29,0.39,1.53,0.39c0-2.07,0.12-3.87,0.36-5.42c0.24-1.55,0.48-2.9,0.72-4.07c0.36-1.29,0.72-2.45,1.08-3.48
			c0.72-1.81,1.59-4.07,2.61-6.78c1.02-2.71,2.13-5.55,3.33-8.52c3.36,0.65,6.55,0.97,9.55,0.97c4.33,0,8.74-0.74,13.25-2.23
			c4.51-1.48,8.83-3.71,12.97-6.68c4.14-2.97,10.41-7.15,18.55-23.91C277.13,56.03,265.9,27.34,229.74,24.76z"/>
		<path class="st53" d="M419.46,105.74c-0.22-0.11-0.43-0.16-0.65-0.16l-0.32,0.16c-2.16,4.96-4.37,8.54-6.63,10.75
			c-2.26,2.21-4.15,3.31-5.66,3.31c-0.86,0-1.43-0.4-1.7-1.21c-0.27-0.81-0.4-1.8-0.4-2.99c0-2.69,0.65-5.55,1.94-8.57
			c1.29-3.02,2.69-5.95,4.2-8.81c1.51-2.85,2.91-5.52,4.2-8c1.29-2.48,1.94-4.53,1.94-6.14c0-0.97-0.38-1.91-1.13-2.83
			c-0.76-0.91-1.59-1.75-2.51-2.51c-0.92-0.75-1.75-1.37-2.51-1.86c-0.75-0.48-1.19-0.73-1.29-0.73c-0.22,0.86-0.54,1.83-0.97,2.91
			c-0.43,1.08-0.92,2.1-1.46,3.07c-0.54,1.19-1.19,2.32-1.94,3.4h-4.53c-0.75,0-1.56-0.03-2.42-0.08c-0.86-0.05-1.64-0.13-2.34-0.24
			c-0.7-0.11-1.29-0.21-1.78-0.32c-0.49-0.11-0.73-0.27-0.73-0.48c0.21-0.21,0.38-0.4,0.48-0.57c0.11-0.16,0.32-0.62,0.65-1.37
			c0-0.11-0.67-0.32-2.02-0.65c-1.35-0.32-2.94-0.7-4.77-1.13c-0.54-0.21-1.03-0.32-1.46-0.32c-0.43,0-0.75,0-0.97,0
			c-0.86,0-1.4,0.3-1.62,0.89c-0.22,0.59-0.32,1.48-0.32,2.67c0,1.19,0.32,2.61,0.97,4.28c0.65,1.67,1.88,3.1,3.72,4.29
			c-0.65,3.13-1.59,6.5-2.83,10.1c-1.23,3.59-3.59,8.6-6.36,11.26c-0.88,0.79-2.01,1.69-3.42,2.73c-1.4,0.97-3.31,2.1-5.74,3.4
			c-2.43,1.29-4.83,1.94-7.2,1.94c-3.13,0-5.63-1.21-7.52-3.64c-1.89-2.43-2.83-5.15-2.83-8.17c0-1.94,0.32-3.88,0.97-5.82
			c0.54,0.54,1.4,1,2.59,1.37c1.18,0.38,2.64,0.57,4.37,0.57c2.48,0,4.85-0.46,7.11-1.37c2.26-0.91,4.23-2.16,5.9-3.72
			c1.67-1.56,2.99-3.37,3.96-5.42c0.97-2.05,1.46-4.2,1.46-6.47c0-2.26-0.95-4.37-2.83-6.31c-1.89-1.94-4.55-2.91-8-2.91
			c-2.8,0-5.5,0.81-8.08,2.42s-4.91,3.77-6.95,6.47c-2.05,2.7-3.67,5.74-4.85,9.14c-1.08,3.08-1.64,6.28-1.74,9.58
			c-0.44-0.08-0.89-0.17-1.33-0.29c-1.19-0.32-2.16-0.75-2.91-1.29c0.32-0.86,0.78-2.07,1.37-3.64c0.59-1.56,1.13-3.29,1.62-5.17
			c0.48-1.88,0.91-3.8,1.29-5.74c0.38-1.94,0.57-3.72,0.57-5.33c0-1.83-0.27-3.31-0.81-4.45c-0.54-1.13-1.56-1.7-3.07-1.7
			c-1.29,0-2.48,0.59-3.56,1.78c-1.08,1.19-2,2.61-2.75,4.28c-0.75,1.67-1.35,3.37-1.78,5.09c-0.43,1.73-0.65,3.07-0.65,4.04
			c0,2.16,0.32,4.12,0.97,5.9s1.56,3.21,2.75,4.29c-0.65,1.19-1.43,2.53-2.34,4.04c-0.92,1.51-1.97,2.91-3.15,4.2
			c-1.19,1.29-2.48,2.4-3.88,3.31c-1.4,0.92-2.91,1.37-4.53,1.37c-1.83,0-3.1-0.59-3.8-1.78c-0.7-1.18-1.05-2.75-1.05-4.69
			c0-2.37,0.35-4.71,1.05-7.03c0.7-2.32,1.56-4.55,2.59-6.71c1.02-2.15,2.13-4.2,3.31-6.14c1.18-1.94,2.26-3.66,3.23-5.17v-0.16
			c-1.29-1.08-2.42-1.88-3.4-2.43c-0.97-0.54-1.97-1.05-2.99-1.54c-1.03-0.48-1.86-0.73-2.51-0.73c-1.83,2.48-3.31,4.85-4.45,7.11
			s-2.18,5.01-3.15,8.25c-0.97,3.23-1.56,6.85-1.78,10.83c-1.83,4.53-3.8,7.71-5.9,9.54c-2.1,1.83-3.91,2.75-5.42,2.75
			c-1.29,0-2.13-0.46-2.51-1.38c-0.38-0.91-0.57-2.07-0.57-3.48c0-2.69,0.65-5.55,1.94-8.57c1.29-3.02,2.69-5.95,4.2-8.81
			c1.51-2.85,2.91-5.52,4.2-8c1.29-2.48,1.94-4.53,1.94-6.14c0-0.86-0.38-1.75-1.13-2.67c-0.76-0.92-1.59-1.75-2.51-2.51
			c-0.92-0.75-1.78-1.38-2.59-1.86c-0.81-0.49-1.27-0.73-1.38-0.73c-0.43,2.16-1.32,4.42-2.67,6.79c-1.35,2.37-2.72,5.01-4.12,7.92
			c-1.4,2.91-2.67,6.14-3.8,9.7c-1.13,3.56-1.7,7.6-1.7,12.13c0,0.26,0.01,0.51,0.02,0.77c-0.06,0.04-0.12,0.08-0.18,0.12
			c-0.75,0.49-1.56,0.92-2.42,1.29c-0.86,0.38-1.78,0.57-2.75,0.57c-0.86,0-1.51-0.11-1.94-0.32c1.72-2.16,3.42-4.98,5.09-8.49
			c1.67-3.5,2.51-7.2,2.51-11.08c0-0.54,0-1.05,0-1.54s-0.06-1-0.16-1.54c0-0.75-0.19-1.72-0.57-2.91c-0.38-1.18-0.92-2.32-1.62-3.4
			c-0.7-1.08-1.64-2.02-2.83-2.83c-1.19-0.81-2.64-1.21-4.37-1.21c-1.73,0-3.13,0.27-4.2,0.81c-1.08,0.54-2.05,1.13-2.91,1.78
			c-0.86-1.4-1.48-2.24-1.86-2.51c-0.38-0.27-0.67-0.4-0.89-0.4c-0.65,0.22-1.83,1-3.56,2.34c-1.73,1.35-3.48,3.21-5.25,5.58
			c-1.78,2.37-3.37,5.2-4.77,8.49c-1.4,3.29-2.1,7.03-2.1,11.24c0,1.62,0.24,3.29,0.73,5.01c0.49,1.73,1.21,3.34,2.18,4.85
			c0.97,1.51,2.24,2.75,3.8,3.72c1.56,0.97,3.48,1.46,5.74,1.46c2.69,0,5.04-0.73,7.03-2.18c1.99-1.46,3.26-2.56,3.8-3.31
			c1.4,0.54,2.75,0.81,4.04,0.81c2.05,0,3.8-0.3,5.25-0.89c1.11-0.45,2.02-0.96,2.76-1.54c0.45,1.65,1.17,3.04,2.17,4.13
			c1.83,2,3.77,2.99,5.82,2.99c1.62,0,3.13-0.38,4.53-1.13c1.4-0.75,2.67-1.72,3.8-2.91c1.13-1.18,2.15-2.42,3.07-3.72
			c0.92-1.29,1.7-2.53,2.34-3.72c0.75,4.31,2.29,7.33,4.61,9.05c2.32,1.73,5.09,2.59,8.33,2.59c2.26,0,4.31-0.59,6.14-1.78
			c1.83-1.19,3.48-2.64,4.93-4.37c1.46-1.72,2.69-3.58,3.72-5.58c1.02-1.99,1.8-3.74,2.34-5.25c1.18,0.54,2.32,0.89,3.4,1.05
			c0.46,0.07,0.89,0.12,1.31,0.15c0.04,1.52,0.27,3.22,0.71,5.1c0.49,2.05,1.32,3.96,2.51,5.74c1.19,1.78,2.75,3.26,4.69,4.45
			c1.94,1.18,4.31,1.78,7.11,1.78c3.77,0,7.09-0.81,9.94-2.42c2.85-1.62,5.2-3.4,7.03-5.34c1.59-1.67,3.04-3.55,4.33-5.64
			c0,0,0.01-0.01,0.01-0.01c0.92-1.43,3.95-6.07,5.03-8.5c1.08-2.43,2.64-5.74,4.69-9.94c0.43,0.11,0.86,0.16,1.29,0.16
			c0.43,0,0.91,0,1.46,0c1.18,0,2.32-0.05,3.4-0.16c1.08-0.11,2.21-0.27,3.39-0.49c-1.19,2.91-2.24,6.04-3.15,9.38
			c-0.92,3.34-1.37,6.58-1.37,9.7c0,3.88,0.89,6.82,2.67,8.81c1.78,2,3.69,2.99,5.74,2.99c2.37,0,4.5-0.91,6.39-2.75
			c1.88-1.83,3.5-3.85,4.85-6.06c1.35-2.21,2.37-4.28,3.07-6.22c0.7-1.94,1.05-3.02,1.05-3.23
			C420.27,106.28,420,106.06,419.46,105.74z M357.22,94.75c1.51-1.94,2.99-3.31,4.45-4.12s2.72-1.21,3.8-1.21
			c1.51,0,2.26,0.7,2.26,2.1c0,0.86-0.35,1.92-1.05,3.15c-0.7,1.24-1.62,2.4-2.75,3.48c-1.13,1.08-2.45,2-3.96,2.75
			c-1.51,0.75-3.07,1.13-4.69,1.13c-1.08,0-1.78-0.05-2.1-0.16C354.36,99.27,355.71,96.9,357.22,94.75z M268.94,119.97
			c-1.08,0.43-1.89,0.65-2.42,0.65c-2.16-0.21-3.83-1-5.01-2.34c-1.19-1.35-1.78-3.48-1.78-6.39s0.62-5.6,1.86-8.08
			c1.24-2.48,2.77-4.69,4.61-6.63c-0.11,0.65-0.19,1.32-0.24,2.02c-0.06,0.7-0.08,1.38-0.08,2.02c0,2.91,0.46,5.88,1.37,8.89
			c0.92,3.02,2.77,5.39,5.58,7.11C271.31,118.62,270.02,119.54,268.94,119.97z M280.75,101.86c-0.11,0.76-0.27,1.46-0.48,2.1
			c-0.43,1.94-0.97,3.67-1.62,5.17c-0.65,1.51-1.4,2.86-2.26,4.04c-1.29-0.43-2.16-1.56-2.59-3.39c-0.43-1.83-0.65-3.34-0.65-4.53
			c0-1.29,0.19-2.67,0.57-4.12c0.38-1.46,0.86-2.8,1.46-4.04c0.59-1.24,1.27-2.29,2.02-3.15c0.75-0.86,1.56-1.29,2.42-1.29
			c0.65,0.22,1.02,1.03,1.13,2.43c0.11,1.4,0.16,2.91,0.16,4.53C280.91,100.35,280.85,101.11,280.75,101.86z M339.43,100.49
			c-0.43,1.24-0.81,2.18-1.13,2.83c-0.11-0.21-0.19-0.35-0.24-0.4c-0.06-0.05-0.14-0.19-0.24-0.4c-0.86-1.62-1.29-3.5-1.29-5.66
			c0-0.65,0.11-1.59,0.32-2.83c0.21-1.24,0.54-2.43,0.97-3.56c0.43-1.13,0.91-2.13,1.46-2.99c0.54-0.86,1.13-1.29,1.78-1.29
			c0.86,0,1.29,0.81,1.29,2.42c0,0.97-0.16,2.16-0.49,3.56c-0.32,1.4-0.7,2.83-1.13,4.28C340.3,97.9,339.86,99.25,339.43,100.49z"/>
	</g>
	<g>
		<linearGradient id="SVGID_5_" gradientUnits="userSpaceOnUse" x1="26.9339" y1="97.2773" x2="440.4309" y2="97.2773">
			<stop  offset="0" style="stop-color:#E9A700"/>
			<stop  offset="0.09" style="stop-color:#EAA900"/>
			<stop  offset="0.1749" style="stop-color:#EBAE12"/>
			<stop  offset="0.2578" style="stop-color:#EEB62F"/>
			<stop  offset="0.3394" style="stop-color:#F1C24F"/>
			<stop  offset="0.4197" style="stop-color:#F4D174"/>
			<stop  offset="0.4987" style="stop-color:#F8E39E"/>
			<stop  offset="0.5" style="stop-color:#F8E39F"/>
			<stop  offset="0.5727" style="stop-color:#F8DD92"/>
			<stop  offset="0.7056" style="stop-color:#F8CA6F"/>
			<stop  offset="0.8826" style="stop-color:#F6AB34"/>
			<stop  offset="1" style="stop-color:#F39200"/>
		</linearGradient>
		<path class="st9" d="M93.87,124.3c-4.47-1.02-9.19-2.7-14.31-3.93c-5.12-1.23-10-2-14.63-2.32c1.08-2.16,2.24-4.28,3.48-6.37
			c1.24-2.08,2.56-4.43,3.96-7.06c2.26-4.32,4.53-9.34,6.79-15.05c2.26-5.71,4.5-11.53,6.71-17.48c2.21-5.94,4.26-11.73,6.14-17.36
			c1.88-5.63,3.58-10.69,5.09-15.17c0.32-1.08,0.54-2.04,0.65-2.89c0.11-0.85,0.16-1.66,0.16-2.43c0-1.85-0.43-3.47-1.29-4.86
			c-0.86-1.39-1.81-2.55-2.83-3.47c-1.03-0.93-2.02-1.66-2.99-2.2c-0.97-0.54-1.56-0.89-1.78-1.04c-1.51,6.48-3.37,14.16-5.58,23.04
			c-2.21,8.88-4.64,17.83-7.28,26.86c-2.64,9.03-5.5,17.59-8.57,25.7c-3.06,8.08-6.26,14.66-9.59,19.75
			c-0.05,0.02-0.11,0.04-0.19,0.04h-0.32c-0.32,0-1.29,0.16-2.91,0.46c-1.62,0.31-3.56,0.85-5.82,1.62
			c-2.26,0.77-4.66,1.74-7.19,2.89c-2.53,1.16-4.9,2.58-7.11,4.28c-2.21,1.7-4.02,3.66-5.42,5.9c-1.4,2.24-2.1,4.75-2.1,7.52
			c0,1.23,0.4,2.39,1.21,3.47c0.81,1.08,2.78,1.62,5.9,1.62c1.29,0,2.83-0.27,4.61-0.81c1.78-0.54,3.75-1.5,5.9-2.89
			c2.16-1.39,4.47-3.36,6.95-5.9c2.48-2.55,5.17-5.83,8.08-9.84c0,0,3.29,0.69,4.04,0.69c1.4,0,3.29,0.15,5.66,0.46
			c2.37,0.31,5.33,0.92,8.81,2.08c81.64,27.27,110.98,31.94,196.9,40.01c1.29,0.12,117.72,12.07,157.13-20.28
			c4.11-4,8.28-8.91,8.3-16.33c0.01-4.44-0.85-5.98-1.28-7.83c0,0-48.89,24.59-148.65,24.27C151.52,149,93.87,124.3,93.87,124.3z
			 M47.39,132.87c-1.78,1.85-3.66,3.47-5.66,4.86c-1.99,1.39-3.99,2.35-5.98,2.89c-1.99,0.54-3.74,0.35-5.25-0.58
			c0.32-2.63,1.62-4.71,3.88-6.25c2.26-1.54,4.69-2.78,7.28-3.7c3.02-1.08,6.41-1.85,10.19-2.31
			C50.65,129.32,49.16,131.02,47.39,132.87z M58.01,118l0.13-0.19C58.14,117.91,58.09,117.97,58.01,118z"/>
		<linearGradient id="SVGID_7_" gradientUnits="userSpaceOnUse" x1="26.9339" y1="97.2773" x2="440.4309" y2="97.2773">
			<stop  offset="0" style="stop-color:#E9A700"/>
			<stop  offset="0.09" style="stop-color:#EAA900"/>
			<stop  offset="0.1749" style="stop-color:#EBAE12"/>
			<stop  offset="0.2578" style="stop-color:#EEB62F"/>
			<stop  offset="0.3394" style="stop-color:#F1C24F"/>
			<stop  offset="0.4197" style="stop-color:#F4D174"/>
			<stop  offset="0.4987" style="stop-color:#F8E39E"/>
			<stop  offset="0.5" style="stop-color:#F8E39F"/>
			<stop  offset="0.5727" style="stop-color:#F8DD92"/>
			<stop  offset="0.7056" style="stop-color:#F8CA6F"/>
			<stop  offset="0.8826" style="stop-color:#F6AB34"/>
			<stop  offset="1" style="stop-color:#F39200"/>
		</linearGradient>
		<path style="fill:url(#SVGID_7_);" d="M92.01,88.12c-1.78,2.37-3.37,5.2-4.77,8.49c-1.4,3.29-2.1,7.03-2.1,11.24
			c0,1.62,0.24,3.29,0.73,5.01c0.49,1.73,1.21,3.34,2.18,4.85c0.97,1.51,2.24,2.75,3.8,3.72c1.56,0.97,3.48,1.46,5.74,1.46
			c2.69,0,5.04-0.73,7.03-2.18c1.99-1.46,3.26-2.56,3.8-3.31c1.4,0.54,2.75,0.81,4.04,0.81c2.05,0,3.8-0.3,5.25-0.89
			c1.46-0.59,2.59-1.29,3.39-2.1c0.13-0.13,0.24-0.26,0.36-0.39c0.41,1,0.9,1.97,1.5,2.89c0.97,1.51,2.24,2.75,3.8,3.72
			c1.56,0.97,3.48,1.46,5.74,1.46c2.69,0,5.04-0.73,7.03-2.18c1.99-1.46,3.26-2.56,3.8-3.31c1.4,0.54,2.75,0.81,4.04,0.81
			c2.05,0,3.8-0.3,5.25-0.89c0.46-0.19,0.87-0.39,1.26-0.59c0.1,1.38,0.38,2.55,0.84,3.5c0.59,1.24,1.32,2.24,2.18,2.99
			s1.78,1.27,2.75,1.54c0.97,0.27,1.88,0.4,2.75,0.4c3.34,0,6.12-0.95,8.33-2.83c2.21-1.88,3.96-3.93,5.25-6.14
			c1.29-2.21,2.48-5.15,3.56-8.81l-0.32-0.32c-0.32-0.32-0.65-0.48-0.97-0.48l-0.32,0.16c-2.26,4.85-4.8,8.33-7.6,10.43
			c-2.8,2.1-5.12,3.15-6.95,3.15c-1.72,0-2.59-1.02-2.59-3.07c0-1.94,0.49-4.45,1.46-7.52c0.97-3.07,2.21-6.39,3.72-9.94
			c1.51-3.56,3.15-7.14,4.93-10.75c1.78-3.61,3.42-6.92,4.93-9.94c2.8-0.21,10.79-0.32,12.62-0.1c3.13,0.22,5.66,0.51,7.6,0.89
			c1.94,0.38,3.48,0.76,4.61,1.13c1.13,0.38,1.96,0.7,2.51,0.97c0.54,0.27,0.97,0.4,1.29,0.4c0.21,0,0.4-0.21,0.57-0.65
			c0.16-0.43,0.27-0.91,0.32-1.46c0.05-0.54,0.11-1.05,0.16-1.54c0.05-0.49,0.08-0.78,0.08-0.89c0-1.62-0.32-2.94-0.97-3.96
			c-0.65-1.02-1.35-1.86-2.1-2.51c-0.86-0.75-1.83-1.35-2.91-1.78c-0.86-0.21-2.53-0.51-5.01-0.89c-2.48-0.38-9.77,0.51-13.75,1.16
			c0.54-0.97,0.97-1.83,1.29-2.59c0.32-0.75,0.49-1.56,0.49-2.43c0-1.08-0.38-2.13-1.13-3.15c-0.75-1.02-1.62-1.91-2.59-2.67
			c-0.97-0.75-1.97-1.37-2.99-1.86c-1.03-0.49-1.75-0.73-2.18-0.73c-0.75,2.37-1.46,4.39-2.1,6.06c-0.65,1.67-1.35,3.45-2.1,5.33
			c-0.76,1.89-1.46,3.53-2.1,4.93c-2.91,0.75-5.31,1.37-7.19,1.86c-1.89,0.48-3.58,0.73-5.09,0.73c-2.91,0-4.37-1.08-4.37-3.23
			c0-1.29,0.32-2.15,0.97-2.59c0.65-0.43,1.24-0.65,1.78-0.65c0.43,0,0.73,0.08,0.89,0.24c0.16,0.16,0.35,0.24,0.57,0.24
			c0.32,0,0.49-0.16,0.49-0.49c0-0.21-0.21-0.48-0.65-0.81c-0.17-0.13-0.39-0.23-0.65-0.31c-0.84-0.25-1.76-0.04-2.5,0.43
			c-2.54,1.6-3.8,3.5-3.8,5.7c0,1.83,0.94,3.5,2.83,5.01c1.89,1.51,4.39,2.26,7.52,2.26c0.86,0,1.78-0.05,2.75-0.16
			c0.97-0.11,1.99-0.38,3.07-0.81c-1.19,2.8-2.37,5.77-3.56,8.89c-1.19,3.13-2.26,6.28-3.23,9.46c-0.97,3.18-1.78,6.22-2.42,9.14
			c-0.37,1.66-0.62,3.2-0.78,4.65c-0.58,0.34-1.17,0.65-1.81,0.93c-0.86,0.38-1.78,0.57-2.75,0.57c-0.86,0-1.51-0.11-1.94-0.32
			c1.72-2.16,3.42-4.98,5.09-8.49c1.67-3.5,2.51-7.2,2.51-11.08c0-0.54,0-1.05,0-1.54s-0.06-1-0.16-1.54c0-0.75-0.19-1.72-0.57-2.91
			c-0.38-1.18-0.92-2.32-1.62-3.4c-0.7-1.08-1.64-2.02-2.83-2.83c-1.19-0.81-2.64-1.21-4.37-1.21c-1.73,0-3.13,0.27-4.2,0.81
			c-1.08,0.54-2.05,1.13-2.91,1.78c-0.86-1.4-1.48-2.24-1.86-2.51c-0.38-0.27-0.67-0.4-0.89-0.4c-0.65,0.22-1.83,1-3.56,2.34
			c-1.73,1.35-3.48,3.21-5.25,5.58c-1.78,2.37-3.37,5.2-4.77,8.49c-1.4,3.29-2.1,7.03-2.1,11.24c0,1.19,0.13,2.41,0.4,3.65
			c-0.23,0.15-0.46,0.3-0.72,0.47c-0.75,0.49-1.56,0.92-2.42,1.29c-0.86,0.38-1.78,0.57-2.75,0.57c-0.86,0-1.51-0.11-1.94-0.32
			c1.72-2.16,3.42-4.98,5.09-8.49c1.67-3.5,2.51-7.2,2.51-11.08c0-0.54,0-1.05,0-1.54s-0.06-1-0.16-1.54c0-0.75-0.19-1.72-0.57-2.91
			c-0.38-1.18-0.92-2.32-1.62-3.4c-0.7-1.08-1.64-2.02-2.83-2.83c-1.19-0.81-2.64-1.21-4.37-1.21c-1.73,0-3.13,0.27-4.2,0.81
			c-1.08,0.54-2.05,1.13-2.91,1.78c-0.86-1.4-1.48-2.24-1.86-2.51c-0.38-0.27-0.67-0.4-0.89-0.4c-0.65,0.22-1.83,1-3.56,2.34
			C95.54,83.89,93.79,85.75,92.01,88.12z M140.19,99.35c0.38-1.46,0.86-2.8,1.46-4.04c0.59-1.24,1.27-2.29,2.02-3.15
			c0.75-0.86,1.56-1.29,2.42-1.29c0.65,0.22,1.02,1.03,1.13,2.43c0.11,1.4,0.16,2.91,0.16,4.53c0,0.76-0.06,1.51-0.16,2.26
			c-0.11,0.76-0.27,1.46-0.48,2.1c-0.43,1.94-0.97,3.67-1.62,5.17c-0.65,1.51-1.4,2.86-2.26,4.04c-1.29-0.43-2.16-1.56-2.59-3.39
			c-0.43-1.83-0.65-3.34-0.65-4.53C139.62,102.18,139.81,100.81,140.19,99.35z M128.06,102.02c1.24-2.48,2.77-4.69,4.61-6.63
			c-0.11,0.65-0.19,1.32-0.24,2.02c-0.06,0.7-0.08,1.38-0.08,2.02c0,2.91,0.46,5.88,1.37,8.89c0.92,3.02,2.77,5.39,5.58,7.11
			c-1.51,1.4-2.8,2.32-3.88,2.75c-1.08,0.43-1.89,0.65-2.42,0.65c-2.16-0.21-3.83-1-5.01-2.34c-1.19-1.35-1.78-3.48-1.78-6.39
			S126.82,104.5,128.06,102.02z M105.27,99.35c0.38-1.46,0.86-2.8,1.46-4.04c0.59-1.24,1.27-2.29,2.02-3.15
			c0.75-0.86,1.56-1.29,2.42-1.29c0.65,0.22,1.02,1.03,1.13,2.43c0.11,1.4,0.16,2.91,0.16,4.53c0,0.76-0.06,1.51-0.16,2.26
			c-0.11,0.76-0.27,1.46-0.48,2.1c-0.43,1.94-0.97,3.67-1.62,5.17c-0.65,1.51-1.4,2.86-2.26,4.04c-1.29-0.43-2.16-1.56-2.59-3.39
			c-0.43-1.83-0.65-3.34-0.65-4.53C104.7,102.18,104.89,100.81,105.27,99.35z M98.8,108.33c0.92,3.02,2.77,5.39,5.58,7.11
			c-1.51,1.4-2.8,2.32-3.88,2.75c-1.08,0.43-1.89,0.65-2.42,0.65c-2.16-0.21-3.83-1-5.01-2.34c-1.19-1.35-1.78-3.48-1.78-6.39
			s0.62-5.6,1.86-8.08c1.24-2.48,2.77-4.69,4.61-6.63c-0.11,0.65-0.19,1.32-0.24,2.02c-0.06,0.7-0.08,1.38-0.08,2.02
			C97.43,102.35,97.88,105.31,98.8,108.33z"/>
		<linearGradient id="SVGID_8_" gradientUnits="userSpaceOnUse" x1="26.9339" y1="97.2773" x2="440.4309" y2="97.2773">
			<stop  offset="0" style="stop-color:#E9A700"/>
			<stop  offset="0.09" style="stop-color:#EAA900"/>
			<stop  offset="0.1749" style="stop-color:#EBAE12"/>
			<stop  offset="0.2578" style="stop-color:#EEB62F"/>
			<stop  offset="0.3394" style="stop-color:#F1C24F"/>
			<stop  offset="0.4197" style="stop-color:#F4D174"/>
			<stop  offset="0.4987" style="stop-color:#F8E39E"/>
			<stop  offset="0.5" style="stop-color:#F8E39F"/>
			<stop  offset="0.5727" style="stop-color:#F8DD92"/>
			<stop  offset="0.7056" style="stop-color:#F8CA6F"/>
			<stop  offset="0.8826" style="stop-color:#F6AB34"/>
			<stop  offset="1" style="stop-color:#F39200"/>
		</linearGradient>
		<path style="fill:url(#SVGID_8_);" d="M229.74,24.76c-20.11-1.43-35.19,9.28-36.49,10.46c-2.4,2.2-3.72,3.48-3.96,3.87
			c-0.24,0.39-0.48,0.84-0.72,1.35c-0.36,1.03-0.54,2.26-0.54,3.68c0,1.42,0.39,3.03,1.17,4.84c0.78,1.81,2.25,3.61,4.41,5.42
			c0.24,0,0.81-0.64,1.71-1.94c0.9-1.29,2.43-2.97,4.6-5.03c1.1-1.05,12.61-11.1,26.89-10.95c13.13,0.13,24.11,2.57,31.66,9.89
			c7.78,7.54,5.45,20.89,2.54,27.49c-2.04,4.26-4.57,8-7.57,11.23c-3,3.23-6.25,5.9-9.73,8.03c-3.49,2.13-7.12,3.71-10.9,4.74
			c-3.78,1.03-7.48,1.55-11.08,1.55c-0.84,0-1.62-0.03-2.34-0.1c-0.72-0.06-1.5-0.16-2.34-0.29c2.64-7.1,4.74-12.49,6.31-16.16
			c1.56-3.68,2.7-6.42,3.42-8.23c0.72-1.81,1.17-3,1.35-3.58c0.18-0.58,0.27-1.32,0.27-2.22c0-1.55-0.48-2.87-1.44-3.97
			c-0.96-1.1-2.04-2.03-3.24-2.81c-1.2-0.77-2.34-1.39-3.42-1.84c-1.08-0.45-1.74-0.74-1.98-0.87c0,0.77-0.15,1.74-0.45,2.9
			c-0.3,1.16-0.63,2.32-0.99,3.49l-1.26,4.06c-1.2,2.97-2.67,6.71-4.41,11.23c-1.74,4.52-3.45,9.61-5.14,15.29
			c-3.13-1.16-5.74-2.48-7.84-3.97c-2.1-1.48-3.78-2.84-5.05-4.07c-1.26-1.22-2.22-2.26-2.88-3.1c-0.66-0.84-1.05-1.26-1.17-1.26
			c-0.24,0-0.48,0.07-0.72,0.19c-0.24,0.13-0.36,0.32-0.36,0.58c0,0.26,0.06,0.45,0.18,0.58c0,0.13,0.06,0.19,0.18,0.19
			c0.84,1.68,1.8,3.19,2.88,4.55c1.08,1.36,2.58,2.84,4.51,4.45c1.92,1.62,4.38,3.13,7.39,4.55c0.24,0.13,0.51,0.26,0.81,0.39
			c0.3,0.13,0.63,0.26,0.99,0.39c-0.6,1.94-1.2,4.07-1.8,6.39c-0.6,2.32-1.14,4.55-1.62,6.68c-0.48,2.13-0.87,4.1-1.17,5.9
			c-0.3,1.81-0.45,3.23-0.45,4.26c0,1.81,0.36,3.22,1.08,4.26c0.72,1.03,1.5,1.84,2.34,2.42c0.84,0.58,1.65,1,2.43,1.26
			c0.78,0.26,1.29,0.39,1.53,0.39c0-2.07,0.12-3.87,0.36-5.42c0.24-1.55,0.48-2.9,0.72-4.07c0.36-1.29,0.72-2.45,1.08-3.48
			c0.72-1.81,1.59-4.07,2.61-6.78c1.02-2.71,2.13-5.55,3.33-8.52c3.36,0.65,6.55,0.97,9.55,0.97c4.33,0,8.74-0.74,13.25-2.23
			c4.51-1.48,8.83-3.71,12.97-6.68c4.14-2.97,10.41-7.15,18.55-23.91C277.13,56.03,265.9,27.34,229.74,24.76z"/>
		<linearGradient id="SVGID_9_" gradientUnits="userSpaceOnUse" x1="26.9339" y1="97.2773" x2="440.4309" y2="97.2773">
			<stop  offset="0" style="stop-color:#E9A700"/>
			<stop  offset="0.09" style="stop-color:#EAA900"/>
			<stop  offset="0.1749" style="stop-color:#EBAE12"/>
			<stop  offset="0.2578" style="stop-color:#EEB62F"/>
			<stop  offset="0.3394" style="stop-color:#F1C24F"/>
			<stop  offset="0.4197" style="stop-color:#F4D174"/>
			<stop  offset="0.4987" style="stop-color:#F8E39E"/>
			<stop  offset="0.5" style="stop-color:#F8E39F"/>
			<stop  offset="0.5727" style="stop-color:#F8DD92"/>
			<stop  offset="0.7056" style="stop-color:#F8CA6F"/>
			<stop  offset="0.8826" style="stop-color:#F6AB34"/>
			<stop  offset="1" style="stop-color:#F39200"/>
		</linearGradient>
		<path class="st16" d="M419.46,105.74c-0.22-0.11-0.43-0.16-0.65-0.16l-0.32,0.16c-2.16,4.96-4.37,8.54-6.63,10.75
			c-2.26,2.21-4.15,3.31-5.66,3.31c-0.86,0-1.43-0.4-1.7-1.21c-0.27-0.81-0.4-1.8-0.4-2.99c0-2.69,0.65-5.55,1.94-8.57
			c1.29-3.02,2.69-5.95,4.2-8.81c1.51-2.85,2.91-5.52,4.2-8c1.29-2.48,1.94-4.53,1.94-6.14c0-0.97-0.38-1.91-1.13-2.83
			c-0.76-0.91-1.59-1.75-2.51-2.51c-0.92-0.75-1.75-1.37-2.51-1.86c-0.75-0.48-1.19-0.73-1.29-0.73c-0.22,0.86-0.54,1.83-0.97,2.91
			c-0.43,1.08-0.92,2.1-1.46,3.07c-0.54,1.19-1.19,2.32-1.94,3.4h-4.53c-0.75,0-1.56-0.03-2.42-0.08c-0.86-0.05-1.64-0.13-2.34-0.24
			c-0.7-0.11-1.29-0.21-1.78-0.32c-0.49-0.11-0.73-0.27-0.73-0.48c0.21-0.21,0.38-0.4,0.48-0.57c0.11-0.16,0.32-0.62,0.65-1.37
			c0-0.11-0.67-0.32-2.02-0.65c-1.35-0.32-2.94-0.7-4.77-1.13c-0.54-0.21-1.03-0.32-1.46-0.32c-0.43,0-0.75,0-0.97,0
			c-0.86,0-1.4,0.3-1.62,0.89c-0.22,0.59-0.32,1.48-0.32,2.67c0,1.19,0.32,2.61,0.97,4.28c0.65,1.67,1.88,3.1,3.72,4.29
			c-0.65,3.13-1.59,6.5-2.83,10.1c-1.23,3.59-3.59,8.6-6.36,11.26c-0.88,0.79-2.01,1.69-3.42,2.73c-1.4,0.97-3.31,2.1-5.74,3.4
			c-2.43,1.29-4.83,1.94-7.2,1.94c-3.13,0-5.63-1.21-7.52-3.64c-1.89-2.43-2.83-5.15-2.83-8.17c0-1.94,0.32-3.88,0.97-5.82
			c0.54,0.54,1.4,1,2.59,1.37c1.18,0.38,2.64,0.57,4.37,0.57c2.48,0,4.85-0.46,7.11-1.37c2.26-0.91,4.23-2.16,5.9-3.72
			c1.67-1.56,2.99-3.37,3.96-5.42c0.97-2.05,1.46-4.2,1.46-6.47c0-2.26-0.95-4.37-2.83-6.31c-1.89-1.94-4.55-2.91-8-2.91
			c-2.8,0-5.5,0.81-8.08,2.42s-4.91,3.77-6.95,6.47c-2.05,2.7-3.67,5.74-4.85,9.14c-1.08,3.08-1.64,6.28-1.74,9.58
			c-0.44-0.08-0.89-0.17-1.33-0.29c-1.19-0.32-2.16-0.75-2.91-1.29c0.32-0.86,0.78-2.07,1.37-3.64c0.59-1.56,1.13-3.29,1.62-5.17
			c0.48-1.88,0.91-3.8,1.29-5.74c0.38-1.94,0.57-3.72,0.57-5.33c0-1.83-0.27-3.31-0.81-4.45c-0.54-1.13-1.56-1.7-3.07-1.7
			c-1.29,0-2.48,0.59-3.56,1.78c-1.08,1.19-2,2.61-2.75,4.28c-0.75,1.67-1.35,3.37-1.78,5.09c-0.43,1.73-0.65,3.07-0.65,4.04
			c0,2.16,0.32,4.12,0.97,5.9s1.56,3.21,2.75,4.29c-0.65,1.19-1.43,2.53-2.34,4.04c-0.92,1.51-1.97,2.91-3.15,4.2
			c-1.19,1.29-2.48,2.4-3.88,3.31c-1.4,0.92-2.91,1.37-4.53,1.37c-1.83,0-3.1-0.59-3.8-1.78c-0.7-1.18-1.05-2.75-1.05-4.69
			c0-2.37,0.35-4.71,1.05-7.03c0.7-2.32,1.56-4.55,2.59-6.71c1.02-2.15,2.13-4.2,3.31-6.14c1.18-1.94,2.26-3.66,3.23-5.17v-0.16
			c-1.29-1.08-2.42-1.88-3.4-2.43c-0.97-0.54-1.97-1.05-2.99-1.54c-1.03-0.48-1.86-0.73-2.51-0.73c-1.83,2.48-3.31,4.85-4.45,7.11
			s-2.18,5.01-3.15,8.25c-0.97,3.23-1.56,6.85-1.78,10.83c-1.83,4.53-3.8,7.71-5.9,9.54c-2.1,1.83-3.91,2.75-5.42,2.75
			c-1.29,0-2.13-0.46-2.51-1.38c-0.38-0.91-0.57-2.07-0.57-3.48c0-2.69,0.65-5.55,1.94-8.57c1.29-3.02,2.69-5.95,4.2-8.81
			c1.51-2.85,2.91-5.52,4.2-8c1.29-2.48,1.94-4.53,1.94-6.14c0-0.86-0.38-1.75-1.13-2.67c-0.76-0.92-1.59-1.75-2.51-2.51
			c-0.92-0.75-1.78-1.38-2.59-1.86c-0.81-0.49-1.27-0.73-1.38-0.73c-0.43,2.16-1.32,4.42-2.67,6.79c-1.35,2.37-2.72,5.01-4.12,7.92
			c-1.4,2.91-2.67,6.14-3.8,9.7c-1.13,3.56-1.7,7.6-1.7,12.13c0,0.26,0.01,0.51,0.02,0.77c-0.06,0.04-0.12,0.08-0.18,0.12
			c-0.75,0.49-1.56,0.92-2.42,1.29c-0.86,0.38-1.78,0.57-2.75,0.57c-0.86,0-1.51-0.11-1.94-0.32c1.72-2.16,3.42-4.98,5.09-8.49
			c1.67-3.5,2.51-7.2,2.51-11.08c0-0.54,0-1.05,0-1.54s-0.06-1-0.16-1.54c0-0.75-0.19-1.72-0.57-2.91c-0.38-1.18-0.92-2.32-1.62-3.4
			c-0.7-1.08-1.64-2.02-2.83-2.83c-1.19-0.81-2.64-1.21-4.37-1.21c-1.73,0-3.13,0.27-4.2,0.81c-1.08,0.54-2.05,1.13-2.91,1.78
			c-0.86-1.4-1.48-2.24-1.86-2.51c-0.38-0.27-0.67-0.4-0.89-0.4c-0.65,0.22-1.83,1-3.56,2.34c-1.73,1.35-3.48,3.21-5.25,5.58
			c-1.78,2.37-3.37,5.2-4.77,8.49c-1.4,3.29-2.1,7.03-2.1,11.24c0,1.62,0.24,3.29,0.73,5.01c0.49,1.73,1.21,3.34,2.18,4.85
			c0.97,1.51,2.24,2.75,3.8,3.72c1.56,0.97,3.48,1.46,5.74,1.46c2.69,0,5.04-0.73,7.03-2.18c1.99-1.46,3.26-2.56,3.8-3.31
			c1.4,0.54,2.75,0.81,4.04,0.81c2.05,0,3.8-0.3,5.25-0.89c1.11-0.45,2.02-0.96,2.76-1.54c0.45,1.65,1.17,3.04,2.17,4.13
			c1.83,2,3.77,2.99,5.82,2.99c1.62,0,3.13-0.38,4.53-1.13c1.4-0.75,2.67-1.72,3.8-2.91c1.13-1.18,2.15-2.42,3.07-3.72
			c0.92-1.29,1.7-2.53,2.34-3.72c0.75,4.31,2.29,7.33,4.61,9.05c2.32,1.73,5.09,2.59,8.33,2.59c2.26,0,4.31-0.59,6.14-1.78
			c1.83-1.19,3.48-2.64,4.93-4.37c1.46-1.72,2.69-3.58,3.72-5.58c1.02-1.99,1.8-3.74,2.34-5.25c1.18,0.54,2.32,0.89,3.4,1.05
			c0.46,0.07,0.89,0.12,1.31,0.15c0.04,1.52,0.27,3.22,0.71,5.1c0.49,2.05,1.32,3.96,2.51,5.74c1.19,1.78,2.75,3.26,4.69,4.45
			c1.94,1.18,4.31,1.78,7.11,1.78c3.77,0,7.09-0.81,9.94-2.42c2.85-1.62,5.2-3.4,7.03-5.34c1.59-1.67,3.04-3.55,4.33-5.64
			c0,0,0.01-0.01,0.01-0.01c0.92-1.43,3.95-6.07,5.03-8.5c1.08-2.43,2.64-5.74,4.69-9.94c0.43,0.11,0.86,0.16,1.29,0.16
			c0.43,0,0.91,0,1.46,0c1.18,0,2.32-0.05,3.4-0.16c1.08-0.11,2.21-0.27,3.39-0.49c-1.19,2.91-2.24,6.04-3.15,9.38
			c-0.92,3.34-1.37,6.58-1.37,9.7c0,3.88,0.89,6.82,2.67,8.81c1.78,2,3.69,2.99,5.74,2.99c2.37,0,4.5-0.91,6.39-2.75
			c1.88-1.83,3.5-3.85,4.85-6.06c1.35-2.21,2.37-4.28,3.07-6.22c0.7-1.94,1.05-3.02,1.05-3.23
			C420.27,106.28,420,106.06,419.46,105.74z M357.22,94.75c1.51-1.94,2.99-3.31,4.45-4.12s2.72-1.21,3.8-1.21
			c1.51,0,2.26,0.7,2.26,2.1c0,0.86-0.35,1.92-1.05,3.15c-0.7,1.24-1.62,2.4-2.75,3.48c-1.13,1.08-2.45,2-3.96,2.75
			c-1.51,0.75-3.07,1.13-4.69,1.13c-1.08,0-1.78-0.05-2.1-0.16C354.36,99.27,355.71,96.9,357.22,94.75z M268.94,119.97
			c-1.08,0.43-1.89,0.65-2.42,0.65c-2.16-0.21-3.83-1-5.01-2.34c-1.19-1.35-1.78-3.48-1.78-6.39s0.62-5.6,1.86-8.08
			c1.24-2.48,2.77-4.69,4.61-6.63c-0.11,0.65-0.19,1.32-0.24,2.02c-0.06,0.7-0.08,1.38-0.08,2.02c0,2.91,0.46,5.88,1.37,8.89
			c0.92,3.02,2.77,5.39,5.58,7.11C271.31,118.62,270.02,119.54,268.94,119.97z M280.75,101.86c-0.11,0.76-0.27,1.46-0.48,2.1
			c-0.43,1.94-0.97,3.67-1.62,5.17c-0.65,1.51-1.4,2.86-2.26,4.04c-1.29-0.43-2.16-1.56-2.59-3.39c-0.43-1.83-0.65-3.34-0.65-4.53
			c0-1.29,0.19-2.67,0.57-4.12c0.38-1.46,0.86-2.8,1.46-4.04c0.59-1.24,1.27-2.29,2.02-3.15c0.75-0.86,1.56-1.29,2.42-1.29
			c0.65,0.22,1.02,1.03,1.13,2.43c0.11,1.4,0.16,2.91,0.16,4.53C280.91,100.35,280.85,101.11,280.75,101.86z M339.43,100.49
			c-0.43,1.24-0.81,2.18-1.13,2.83c-0.11-0.21-0.19-0.35-0.24-0.4c-0.06-0.05-0.14-0.19-0.24-0.4c-0.86-1.62-1.29-3.5-1.29-5.66
			c0-0.65,0.11-1.59,0.32-2.83c0.21-1.24,0.54-2.43,0.97-3.56c0.43-1.13,0.91-2.13,1.46-2.99c0.54-0.86,1.13-1.29,1.78-1.29
			c0.86,0,1.29,0.81,1.29,2.42c0,0.97-0.16,2.16-0.49,3.56c-0.32,1.4-0.7,2.83-1.13,4.28C340.3,97.9,339.86,99.25,339.43,100.49z"/>
	</g>
	<g>
		<path class="st58" d="M93.87,124.3c-4.47-1.02-9.19-2.7-14.31-3.93c-5.12-1.23-10-2-14.63-2.32c1.08-2.16,2.24-4.28,3.48-6.37
			c1.24-2.08,2.56-4.43,3.96-7.06c2.26-4.32,4.53-9.34,6.79-15.05c2.26-5.71,4.5-11.53,6.71-17.48c2.21-5.94,4.26-11.73,6.14-17.36
			c1.88-5.63,3.58-10.69,5.09-15.17c0.32-1.08,0.54-2.04,0.65-2.89c0.11-0.85,0.16-1.66,0.16-2.43c0-1.85-0.43-3.47-1.29-4.86
			c-0.86-1.39-1.81-2.55-2.83-3.47c-1.03-0.93-2.02-1.66-2.99-2.2c-0.97-0.54-1.56-0.89-1.78-1.04c-1.51,6.48-3.37,14.16-5.58,23.04
			c-2.21,8.88-4.64,17.83-7.28,26.86c-2.64,9.03-5.5,17.59-8.57,25.7c-3.06,8.08-6.26,14.66-9.59,19.75
			c-0.05,0.02-0.11,0.04-0.19,0.04h-0.32c-0.32,0-1.29,0.16-2.91,0.46c-1.62,0.31-3.56,0.85-5.82,1.62
			c-2.26,0.77-4.66,1.74-7.19,2.89c-2.53,1.16-4.9,2.58-7.11,4.28c-2.21,1.7-4.02,3.66-5.42,5.9c-1.4,2.24-2.1,4.75-2.1,7.52
			c0,1.23,0.4,2.39,1.21,3.47c0.81,1.08,2.78,1.62,5.9,1.62c1.29,0,2.83-0.27,4.61-0.81c1.78-0.54,3.75-1.5,5.9-2.89
			c2.16-1.39,4.47-3.36,6.95-5.9c2.48-2.55,5.17-5.83,8.08-9.84c0,0,3.29,0.69,4.04,0.69c1.4,0,3.29,0.15,5.66,0.46
			c2.37,0.31,5.33,0.92,8.81,2.08c81.64,27.27,110.98,31.94,196.9,40.01c1.29,0.12,117.72,12.07,157.13-20.28
			c4.11-4,8.28-8.91,8.3-16.33c0.01-4.44-0.85-5.98-1.28-7.83c0,0-48.89,24.59-148.65,24.27C151.52,149,93.87,124.3,93.87,124.3z
			 M47.39,132.87c-1.78,1.85-3.66,3.47-5.66,4.86c-1.99,1.39-3.99,2.35-5.98,2.89c-1.99,0.54-3.74,0.35-5.25-0.58
			c0.32-2.63,1.62-4.71,3.88-6.25c2.26-1.54,4.69-2.78,7.28-3.7c3.02-1.08,6.41-1.85,10.19-2.31
			C50.65,129.32,49.16,131.02,47.39,132.87z M58.01,118l0.13-0.19C58.14,117.91,58.09,117.97,58.01,118z"/>
		<path class="st58" d="M92.01,88.12c-1.78,2.37-3.37,5.2-4.77,8.49c-1.4,3.29-2.1,7.03-2.1,11.24c0,1.62,0.24,3.29,0.73,5.01
			c0.49,1.73,1.21,3.34,2.18,4.85c0.97,1.51,2.24,2.75,3.8,3.72c1.56,0.97,3.48,1.46,5.74,1.46c2.69,0,5.04-0.73,7.03-2.18
			c1.99-1.46,3.26-2.56,3.8-3.31c1.4,0.54,2.75,0.81,4.04,0.81c2.05,0,3.8-0.3,5.25-0.89c1.46-0.59,2.59-1.29,3.39-2.1
			c0.13-0.13,0.24-0.26,0.36-0.39c0.41,1,0.9,1.97,1.5,2.89c0.97,1.51,2.24,2.75,3.8,3.72c1.56,0.97,3.48,1.46,5.74,1.46
			c2.69,0,5.04-0.73,7.03-2.18c1.99-1.46,3.26-2.56,3.8-3.31c1.4,0.54,2.75,0.81,4.04,0.81c2.05,0,3.8-0.3,5.25-0.89
			c0.46-0.19,0.87-0.39,1.26-0.59c0.1,1.38,0.38,2.55,0.84,3.5c0.59,1.24,1.32,2.24,2.18,2.99s1.78,1.27,2.75,1.54
			c0.97,0.27,1.88,0.4,2.75,0.4c3.34,0,6.12-0.95,8.33-2.83c2.21-1.88,3.96-3.93,5.25-6.14c1.29-2.21,2.48-5.15,3.56-8.81
			l-0.32-0.32c-0.32-0.32-0.65-0.48-0.97-0.48l-0.32,0.16c-2.26,4.85-4.8,8.33-7.6,10.43c-2.8,2.1-5.12,3.15-6.95,3.15
			c-1.72,0-2.59-1.02-2.59-3.07c0-1.94,0.49-4.45,1.46-7.52c0.97-3.07,2.21-6.39,3.72-9.94c1.51-3.56,3.15-7.14,4.93-10.75
			c1.78-3.61,3.42-6.92,4.93-9.94c2.8-0.21,10.79-0.32,12.62-0.1c3.13,0.22,5.66,0.51,7.6,0.89c1.94,0.38,3.48,0.76,4.61,1.13
			c1.13,0.38,1.96,0.7,2.51,0.97c0.54,0.27,0.97,0.4,1.29,0.4c0.21,0,0.4-0.21,0.57-0.65c0.16-0.43,0.27-0.91,0.32-1.46
			c0.05-0.54,0.11-1.05,0.16-1.54c0.05-0.49,0.08-0.78,0.08-0.89c0-1.62-0.32-2.94-0.97-3.96c-0.65-1.02-1.35-1.86-2.1-2.51
			c-0.86-0.75-1.83-1.35-2.91-1.78c-0.86-0.21-2.53-0.51-5.01-0.89c-2.48-0.38-9.77,0.51-13.75,1.16c0.54-0.97,0.97-1.83,1.29-2.59
			c0.32-0.75,0.49-1.56,0.49-2.43c0-1.08-0.38-2.13-1.13-3.15c-0.75-1.02-1.62-1.91-2.59-2.67c-0.97-0.75-1.97-1.37-2.99-1.86
			c-1.03-0.49-1.75-0.73-2.18-0.73c-0.75,2.37-1.46,4.39-2.1,6.06c-0.65,1.67-1.35,3.45-2.1,5.33c-0.76,1.89-1.46,3.53-2.1,4.93
			c-2.91,0.75-5.31,1.37-7.19,1.86c-1.89,0.48-3.58,0.73-5.09,0.73c-2.91,0-4.37-1.08-4.37-3.23c0-1.29,0.32-2.15,0.97-2.59
			c0.65-0.43,1.24-0.65,1.78-0.65c0.43,0,0.73,0.08,0.89,0.24c0.16,0.16,0.35,0.24,0.57,0.24c0.32,0,0.49-0.16,0.49-0.49
			c0-0.21-0.21-0.48-0.65-0.81c-0.17-0.13-0.39-0.23-0.65-0.31c-0.84-0.25-1.76-0.04-2.5,0.43c-2.54,1.6-3.8,3.5-3.8,5.7
			c0,1.83,0.94,3.5,2.83,5.01c1.89,1.51,4.39,2.26,7.52,2.26c0.86,0,1.78-0.05,2.75-0.16c0.97-0.11,1.99-0.38,3.07-0.81
			c-1.19,2.8-2.37,5.77-3.56,8.89c-1.19,3.13-2.26,6.28-3.23,9.46c-0.97,3.18-1.78,6.22-2.42,9.14c-0.37,1.66-0.62,3.2-0.78,4.65
			c-0.58,0.34-1.17,0.65-1.81,0.93c-0.86,0.38-1.78,0.57-2.75,0.57c-0.86,0-1.51-0.11-1.94-0.32c1.72-2.16,3.42-4.98,5.09-8.49
			c1.67-3.5,2.51-7.2,2.51-11.08c0-0.54,0-1.05,0-1.54s-0.06-1-0.16-1.54c0-0.75-0.19-1.72-0.57-2.91c-0.38-1.18-0.92-2.32-1.62-3.4
			c-0.7-1.08-1.64-2.02-2.83-2.83c-1.19-0.81-2.64-1.21-4.37-1.21c-1.73,0-3.13,0.27-4.2,0.81c-1.08,0.54-2.05,1.13-2.91,1.78
			c-0.86-1.4-1.48-2.24-1.86-2.51c-0.38-0.27-0.67-0.4-0.89-0.4c-0.65,0.22-1.83,1-3.56,2.34c-1.73,1.35-3.48,3.21-5.25,5.58
			c-1.78,2.37-3.37,5.2-4.77,8.49c-1.4,3.29-2.1,7.03-2.1,11.24c0,1.19,0.13,2.41,0.4,3.65c-0.23,0.15-0.46,0.3-0.72,0.47
			c-0.75,0.49-1.56,0.92-2.42,1.29c-0.86,0.38-1.78,0.57-2.75,0.57c-0.86,0-1.51-0.11-1.94-0.32c1.72-2.16,3.42-4.98,5.09-8.49
			c1.67-3.5,2.51-7.2,2.51-11.08c0-0.54,0-1.05,0-1.54s-0.06-1-0.16-1.54c0-0.75-0.19-1.72-0.57-2.91c-0.38-1.18-0.92-2.32-1.62-3.4
			c-0.7-1.08-1.64-2.02-2.83-2.83c-1.19-0.81-2.64-1.21-4.37-1.21c-1.73,0-3.13,0.27-4.2,0.81c-1.08,0.54-2.05,1.13-2.91,1.78
			c-0.86-1.4-1.48-2.24-1.86-2.51c-0.38-0.27-0.67-0.4-0.89-0.4c-0.65,0.22-1.83,1-3.56,2.34C95.54,83.89,93.79,85.75,92.01,88.12z
			 M140.19,99.35c0.38-1.46,0.86-2.8,1.46-4.04c0.59-1.24,1.27-2.29,2.02-3.15c0.75-0.86,1.56-1.29,2.42-1.29
			c0.65,0.22,1.02,1.03,1.13,2.43c0.11,1.4,0.16,2.91,0.16,4.53c0,0.76-0.06,1.51-0.16,2.26c-0.11,0.76-0.27,1.46-0.48,2.1
			c-0.43,1.94-0.97,3.67-1.62,5.17c-0.65,1.51-1.4,2.86-2.26,4.04c-1.29-0.43-2.16-1.56-2.59-3.39c-0.43-1.83-0.65-3.34-0.65-4.53
			C139.62,102.18,139.81,100.81,140.19,99.35z M128.06,102.02c1.24-2.48,2.77-4.69,4.61-6.63c-0.11,0.65-0.19,1.32-0.24,2.02
			c-0.06,0.7-0.08,1.38-0.08,2.02c0,2.91,0.46,5.88,1.37,8.89c0.92,3.02,2.77,5.39,5.58,7.11c-1.51,1.4-2.8,2.32-3.88,2.75
			c-1.08,0.43-1.89,0.65-2.42,0.65c-2.16-0.21-3.83-1-5.01-2.34c-1.19-1.35-1.78-3.48-1.78-6.39S126.82,104.5,128.06,102.02z
			 M105.27,99.35c0.38-1.46,0.86-2.8,1.46-4.04c0.59-1.24,1.27-2.29,2.02-3.15c0.75-0.86,1.56-1.29,2.42-1.29
			c0.65,0.22,1.02,1.03,1.13,2.43c0.11,1.4,0.16,2.91,0.16,4.53c0,0.76-0.06,1.51-0.16,2.26c-0.11,0.76-0.27,1.46-0.48,2.1
			c-0.43,1.94-0.97,3.67-1.62,5.17c-0.65,1.51-1.4,2.86-2.26,4.04c-1.29-0.43-2.16-1.56-2.59-3.39c-0.43-1.83-0.65-3.34-0.65-4.53
			C104.7,102.18,104.89,100.81,105.27,99.35z M98.8,108.33c0.92,3.02,2.77,5.39,5.58,7.11c-1.51,1.4-2.8,2.32-3.88,2.75
			c-1.08,0.43-1.89,0.65-2.42,0.65c-2.16-0.21-3.83-1-5.01-2.34c-1.19-1.35-1.78-3.48-1.78-6.39s0.62-5.6,1.86-8.08
			c1.24-2.48,2.77-4.69,4.61-6.63c-0.11,0.65-0.19,1.32-0.24,2.02c-0.06,0.7-0.08,1.38-0.08,2.02
			C97.43,102.35,97.88,105.31,98.8,108.33z"/>
		<path class="st58" d="M229.74,24.76c-20.11-1.43-35.19,9.28-36.49,10.46c-2.4,2.2-3.72,3.48-3.96,3.87
			c-0.24,0.39-0.48,0.84-0.72,1.35c-0.36,1.03-0.54,2.26-0.54,3.68c0,1.42,0.39,3.03,1.17,4.84c0.78,1.81,2.25,3.61,4.41,5.42
			c0.24,0,0.81-0.64,1.71-1.94c0.9-1.29,2.43-2.97,4.6-5.03c1.1-1.05,12.61-11.1,26.89-10.95c13.13,0.13,24.11,2.57,31.66,9.89
			c7.78,7.54,5.45,20.89,2.54,27.49c-2.04,4.26-4.57,8-7.57,11.23c-3,3.23-6.25,5.9-9.73,8.03c-3.49,2.13-7.12,3.71-10.9,4.74
			c-3.78,1.03-7.48,1.55-11.08,1.55c-0.84,0-1.62-0.03-2.34-0.1c-0.72-0.06-1.5-0.16-2.34-0.29c2.64-7.1,4.74-12.49,6.31-16.16
			c1.56-3.68,2.7-6.42,3.42-8.23c0.72-1.81,1.17-3,1.35-3.58c0.18-0.58,0.27-1.32,0.27-2.22c0-1.55-0.48-2.87-1.44-3.97
			c-0.96-1.1-2.04-2.03-3.24-2.81c-1.2-0.77-2.34-1.39-3.42-1.84c-1.08-0.45-1.74-0.74-1.98-0.87c0,0.77-0.15,1.74-0.45,2.9
			c-0.3,1.16-0.63,2.32-0.99,3.49l-1.26,4.06c-1.2,2.97-2.67,6.71-4.41,11.23c-1.74,4.52-3.45,9.61-5.14,15.29
			c-3.13-1.16-5.74-2.48-7.84-3.97c-2.1-1.48-3.78-2.84-5.05-4.07c-1.26-1.22-2.22-2.26-2.88-3.1c-0.66-0.84-1.05-1.26-1.17-1.26
			c-0.24,0-0.48,0.07-0.72,0.19c-0.24,0.13-0.36,0.32-0.36,0.58c0,0.26,0.06,0.45,0.18,0.58c0,0.13,0.06,0.19,0.18,0.19
			c0.84,1.68,1.8,3.19,2.88,4.55c1.08,1.36,2.58,2.84,4.51,4.45c1.92,1.62,4.38,3.13,7.39,4.55c0.24,0.13,0.51,0.26,0.81,0.39
			c0.3,0.13,0.63,0.26,0.99,0.39c-0.6,1.94-1.2,4.07-1.8,6.39c-0.6,2.32-1.14,4.55-1.62,6.68c-0.48,2.13-0.87,4.1-1.17,5.9
			c-0.3,1.81-0.45,3.23-0.45,4.26c0,1.81,0.36,3.22,1.08,4.26c0.72,1.03,1.5,1.84,2.34,2.42c0.84,0.58,1.65,1,2.43,1.26
			c0.78,0.26,1.29,0.39,1.53,0.39c0-2.07,0.12-3.87,0.36-5.42c0.24-1.55,0.48-2.9,0.72-4.07c0.36-1.29,0.72-2.45,1.08-3.48
			c0.72-1.81,1.59-4.07,2.61-6.78c1.02-2.71,2.13-5.55,3.33-8.52c3.36,0.65,6.55,0.97,9.55,0.97c4.33,0,8.74-0.74,13.25-2.23
			c4.51-1.48,8.83-3.71,12.97-6.68c4.14-2.97,10.41-7.15,18.55-23.91C277.13,56.03,265.9,27.34,229.74,24.76z"/>
		<path class="st58" d="M419.46,105.74c-0.22-0.11-0.43-0.16-0.65-0.16l-0.32,0.16c-2.16,4.96-4.37,8.54-6.63,10.75
			c-2.26,2.21-4.15,3.31-5.66,3.31c-0.86,0-1.43-0.4-1.7-1.21c-0.27-0.81-0.4-1.8-0.4-2.99c0-2.69,0.65-5.55,1.94-8.57
			c1.29-3.02,2.69-5.95,4.2-8.81c1.51-2.85,2.91-5.52,4.2-8c1.29-2.48,1.94-4.53,1.94-6.14c0-0.97-0.38-1.91-1.13-2.83
			c-0.76-0.91-1.59-1.75-2.51-2.51c-0.92-0.75-1.75-1.37-2.51-1.86c-0.75-0.48-1.19-0.73-1.29-0.73c-0.22,0.86-0.54,1.83-0.97,2.91
			c-0.43,1.08-0.92,2.1-1.46,3.07c-0.54,1.19-1.19,2.32-1.94,3.4h-4.53c-0.75,0-1.56-0.03-2.42-0.08c-0.86-0.05-1.64-0.13-2.34-0.24
			c-0.7-0.11-1.29-0.21-1.78-0.32c-0.49-0.11-0.73-0.27-0.73-0.48c0.21-0.21,0.38-0.4,0.48-0.57c0.11-0.16,0.32-0.62,0.65-1.37
			c0-0.11-0.67-0.32-2.02-0.65c-1.35-0.32-2.94-0.7-4.77-1.13c-0.54-0.21-1.03-0.32-1.46-0.32c-0.43,0-0.75,0-0.97,0
			c-0.86,0-1.4,0.3-1.62,0.89c-0.22,0.59-0.32,1.48-0.32,2.67c0,1.19,0.32,2.61,0.97,4.28c0.65,1.67,1.88,3.1,3.72,4.29
			c-0.65,3.13-1.59,6.5-2.83,10.1c-1.23,3.59-3.59,8.6-6.36,11.26c-0.88,0.79-2.01,1.69-3.42,2.73c-1.4,0.97-3.31,2.1-5.74,3.4
			c-2.43,1.29-4.83,1.94-7.2,1.94c-3.13,0-5.63-1.21-7.52-3.64c-1.89-2.43-2.83-5.15-2.83-8.17c0-1.94,0.32-3.88,0.97-5.82
			c0.54,0.54,1.4,1,2.59,1.37c1.18,0.38,2.64,0.57,4.37,0.57c2.48,0,4.85-0.46,7.11-1.37c2.26-0.91,4.23-2.16,5.9-3.72
			c1.67-1.56,2.99-3.37,3.96-5.42c0.97-2.05,1.46-4.2,1.46-6.47c0-2.26-0.95-4.37-2.83-6.31c-1.89-1.94-4.55-2.91-8-2.91
			c-2.8,0-5.5,0.81-8.08,2.42s-4.91,3.77-6.95,6.47c-2.05,2.7-3.67,5.74-4.85,9.14c-1.08,3.08-1.64,6.28-1.74,9.58
			c-0.44-0.08-0.89-0.17-1.33-0.29c-1.19-0.32-2.16-0.75-2.91-1.29c0.32-0.86,0.78-2.07,1.37-3.64c0.59-1.56,1.13-3.29,1.62-5.17
			c0.48-1.88,0.91-3.8,1.29-5.74c0.38-1.94,0.57-3.72,0.57-5.33c0-1.83-0.27-3.31-0.81-4.45c-0.54-1.13-1.56-1.7-3.07-1.7
			c-1.29,0-2.48,0.59-3.56,1.78c-1.08,1.19-2,2.61-2.75,4.28c-0.75,1.67-1.35,3.37-1.78,5.09c-0.43,1.73-0.65,3.07-0.65,4.04
			c0,2.16,0.32,4.12,0.97,5.9s1.56,3.21,2.75,4.29c-0.65,1.19-1.43,2.53-2.34,4.04c-0.92,1.51-1.97,2.91-3.15,4.2
			c-1.19,1.29-2.48,2.4-3.88,3.31c-1.4,0.92-2.91,1.37-4.53,1.37c-1.83,0-3.1-0.59-3.8-1.78c-0.7-1.18-1.05-2.75-1.05-4.69
			c0-2.37,0.35-4.71,1.05-7.03c0.7-2.32,1.56-4.55,2.59-6.71c1.02-2.15,2.13-4.2,3.31-6.14c1.18-1.94,2.26-3.66,3.23-5.17v-0.16
			c-1.29-1.08-2.42-1.88-3.4-2.43c-0.97-0.54-1.97-1.05-2.99-1.54c-1.03-0.48-1.86-0.73-2.51-0.73c-1.83,2.48-3.31,4.85-4.45,7.11
			s-2.18,5.01-3.15,8.25c-0.97,3.23-1.56,6.85-1.78,10.83c-1.83,4.53-3.8,7.71-5.9,9.54c-2.1,1.83-3.91,2.75-5.42,2.75
			c-1.29,0-2.13-0.46-2.51-1.38c-0.38-0.91-0.57-2.07-0.57-3.48c0-2.69,0.65-5.55,1.94-8.57c1.29-3.02,2.69-5.95,4.2-8.81
			c1.51-2.85,2.91-5.52,4.2-8c1.29-2.48,1.94-4.53,1.94-6.14c0-0.86-0.38-1.75-1.13-2.67c-0.76-0.92-1.59-1.75-2.51-2.51
			c-0.92-0.75-1.78-1.38-2.59-1.86c-0.81-0.49-1.27-0.73-1.38-0.73c-0.43,2.16-1.32,4.42-2.67,6.79c-1.35,2.37-2.72,5.01-4.12,7.92
			c-1.4,2.91-2.67,6.14-3.8,9.7c-1.13,3.56-1.7,7.6-1.7,12.13c0,0.26,0.01,0.51,0.02,0.77c-0.06,0.04-0.12,0.08-0.18,0.12
			c-0.75,0.49-1.56,0.92-2.42,1.29c-0.86,0.38-1.78,0.57-2.75,0.57c-0.86,0-1.51-0.11-1.94-0.32c1.72-2.16,3.42-4.98,5.09-8.49
			c1.67-3.5,2.51-7.2,2.51-11.08c0-0.54,0-1.05,0-1.54s-0.06-1-0.16-1.54c0-0.75-0.19-1.72-0.57-2.91c-0.38-1.18-0.92-2.32-1.62-3.4
			c-0.7-1.08-1.64-2.02-2.83-2.83c-1.19-0.81-2.64-1.21-4.37-1.21c-1.73,0-3.13,0.27-4.2,0.81c-1.08,0.54-2.05,1.13-2.91,1.78
			c-0.86-1.4-1.48-2.24-1.86-2.51c-0.38-0.27-0.67-0.4-0.89-0.4c-0.65,0.22-1.83,1-3.56,2.34c-1.73,1.35-3.48,3.21-5.25,5.58
			c-1.78,2.37-3.37,5.2-4.77,8.49c-1.4,3.29-2.1,7.03-2.1,11.24c0,1.62,0.24,3.29,0.73,5.01c0.49,1.73,1.21,3.34,2.18,4.85
			c0.97,1.51,2.24,2.75,3.8,3.72c1.56,0.97,3.48,1.46,5.74,1.46c2.69,0,5.04-0.73,7.03-2.18c1.99-1.46,3.26-2.56,3.8-3.31
			c1.4,0.54,2.75,0.81,4.04,0.81c2.05,0,3.8-0.3,5.25-0.89c1.11-0.45,2.02-0.96,2.76-1.54c0.45,1.65,1.17,3.04,2.17,4.13
			c1.83,2,3.77,2.99,5.82,2.99c1.62,0,3.13-0.38,4.53-1.13c1.4-0.75,2.67-1.72,3.8-2.91c1.13-1.18,2.15-2.42,3.07-3.72
			c0.92-1.29,1.7-2.53,2.34-3.72c0.75,4.31,2.29,7.33,4.61,9.05c2.32,1.73,5.09,2.59,8.33,2.59c2.26,0,4.31-0.59,6.14-1.78
			c1.83-1.19,3.48-2.64,4.93-4.37c1.46-1.72,2.69-3.58,3.72-5.58c1.02-1.99,1.8-3.74,2.34-5.25c1.18,0.54,2.32,0.89,3.4,1.05
			c0.46,0.07,0.89,0.12,1.31,0.15c0.04,1.52,0.27,3.22,0.71,5.1c0.49,2.05,1.32,3.96,2.51,5.74c1.19,1.78,2.75,3.26,4.69,4.45
			c1.94,1.18,4.31,1.78,7.11,1.78c3.77,0,7.09-0.81,9.94-2.42c2.85-1.62,5.2-3.4,7.03-5.34c1.59-1.67,3.04-3.55,4.33-5.64
			c0,0,0.01-0.01,0.01-0.01c0.92-1.43,3.95-6.07,5.03-8.5c1.08-2.43,2.64-5.74,4.69-9.94c0.43,0.11,0.86,0.16,1.29,0.16
			c0.43,0,0.91,0,1.46,0c1.18,0,2.32-0.05,3.4-0.16c1.08-0.11,2.21-0.27,3.39-0.49c-1.19,2.91-2.24,6.04-3.15,9.38
			c-0.92,3.34-1.37,6.58-1.37,9.7c0,3.88,0.89,6.82,2.67,8.81c1.78,2,3.69,2.99,5.74,2.99c2.37,0,4.5-0.91,6.39-2.75
			c1.88-1.83,3.5-3.85,4.85-6.06c1.35-2.21,2.37-4.28,3.07-6.22c0.7-1.94,1.05-3.02,1.05-3.23
			C420.27,106.28,420,106.06,419.46,105.74z M357.22,94.75c1.51-1.94,2.99-3.31,4.45-4.12s2.72-1.21,3.8-1.21
			c1.51,0,2.26,0.7,2.26,2.1c0,0.86-0.35,1.92-1.05,3.15c-0.7,1.24-1.62,2.4-2.75,3.48c-1.13,1.08-2.45,2-3.96,2.75
			c-1.51,0.75-3.07,1.13-4.69,1.13c-1.08,0-1.78-0.05-2.1-0.16C354.36,99.27,355.71,96.9,357.22,94.75z M268.94,119.97
			c-1.08,0.43-1.89,0.65-2.42,0.65c-2.16-0.21-3.83-1-5.01-2.34c-1.19-1.35-1.78-3.48-1.78-6.39s0.62-5.6,1.86-8.08
			c1.24-2.48,2.77-4.69,4.61-6.63c-0.11,0.65-0.19,1.32-0.24,2.02c-0.06,0.7-0.08,1.38-0.08,2.02c0,2.91,0.46,5.88,1.37,8.89
			c0.92,3.02,2.77,5.39,5.58,7.11C271.31,118.62,270.02,119.54,268.94,119.97z M280.75,101.86c-0.11,0.76-0.27,1.46-0.48,2.1
			c-0.43,1.94-0.97,3.67-1.62,5.17c-0.65,1.51-1.4,2.86-2.26,4.04c-1.29-0.43-2.16-1.56-2.59-3.39c-0.43-1.83-0.65-3.34-0.65-4.53
			c0-1.29,0.19-2.67,0.57-4.12c0.38-1.46,0.86-2.8,1.46-4.04c0.59-1.24,1.27-2.29,2.02-3.15c0.75-0.86,1.56-1.29,2.42-1.29
			c0.65,0.22,1.02,1.03,1.13,2.43c0.11,1.4,0.16,2.91,0.16,4.53C280.91,100.35,280.85,101.11,280.75,101.86z M339.43,100.49
			c-0.43,1.24-0.81,2.18-1.13,2.83c-0.11-0.21-0.19-0.35-0.24-0.4c-0.06-0.05-0.14-0.19-0.24-0.4c-0.86-1.62-1.29-3.5-1.29-5.66
			c0-0.65,0.11-1.59,0.32-2.83c0.21-1.24,0.54-2.43,0.97-3.56c0.43-1.13,0.91-2.13,1.46-2.99c0.54-0.86,1.13-1.29,1.78-1.29
			c0.86,0,1.29,0.81,1.29,2.42c0,0.97-0.16,2.16-0.49,3.56c-0.32,1.4-0.7,2.83-1.13,4.28C340.3,97.9,339.86,99.25,339.43,100.49z"/>
	</g>
</g>
<linearGradient id="SVGID_11_" gradientUnits="userSpaceOnUse" x1="96.7028" y1="148.9334" x2="439.5917" y2="148.9334">
	<stop  offset="0" style="stop-color:#F3944C"/>
	<stop  offset="0.5" style="stop-color:#ED6D05"/>
	<stop  offset="1" style="stop-color:#D25917"/>
</linearGradient>
<path style="fill:url(#SVGID_11_);fill-opacity:0.26;" d="M438.53,126.63c0,0,8.72,20.87-23.77,32.04
	c-30.64,10.53-80.45,20.58-207.86,3C127.18,148.71,96.7,135.09,96.7,135.09s41.29,9.45,72.21,15.16s135.14,23.73,196.53,7.69
	S438.53,126.63,438.53,126.63z"/>
</svg>
